<svg version="1.1" viewBox="0.0 0.0 731.1286089238845 338.5511811023622" fill="none" stroke="none" stroke-linecap="square" stroke-miterlimit="10" xmlns:xlink="http://www.w3.org/1999/xlink" xmlns="http://www.w3.org/2000/svg"><clipPath id="p.0"><path d="m0 0l731.1286 0l0 338.55118l-731.1286 0l0 -338.55118z" clip-rule="nonzero"/></clipPath><g clip-path="url(#p.0)"><path fill="#000000" fill-opacity="0.0" d="m0 0l731.1286 0l0 338.55118l-731.1286 0z" fill-rule="evenodd"/><path fill="#000000" fill-opacity="0.0" d="m262.3727 118.54593l2.6141663 0l0 1.7322845l-2.6141663 0z" fill-rule="evenodd"/><path fill="#000000" fill-opacity="0.0" d="m44.2231 45.76378l600.56696 0l0 35.74803l-600.56696 0z" fill-rule="evenodd"/><path fill="#000000" d="m140.6163 63.307793l0 6.46875l3.421875 0q0.28125 0 0.390625 0.109375q0.125 0.109375 0.125 0.28125q0 0.171875 -0.125 0.28125q-0.109375 0.109375 -0.390625 0.109375l-6.09375 0q-0.28125 0 -0.40625 -0.109375q-0.109375 -0.109375 -0.109375 -0.28125q0 -0.171875 0.109375 -0.28125q0.125 -0.109375 0.40625 -0.109375l1.875 0l0 -6.46875l-1.6875 0q-0.265625 0 -0.390625 -0.109375q-0.125 -0.109375 -0.125 -0.28125q0 -0.171875 0.125 -0.28125q0.125 -0.109375 0.390625 -0.109375l1.6875 0l0 -1.1875q0 -0.984375 0.796875 -1.703125q0.8125 -0.71875 2.125 -0.71875q1.109375 0 2.359375 0.203125q0.46875 0.078125 0.5625 0.1875q0.09375 0.09375 0.09375 0.25q0 0.171875 -0.109375 0.28125q-0.109375 0.109375 -0.296875 0.109375q-0.0625 0 -0.25 -0.03125q-1.390625 -0.21875 -2.359375 -0.21875q-1.015625 0 -1.578125 0.5q-0.546875 0.5 -0.546875 1.140625l0 1.1875l3.640625 0q0.28125 0 0.40625 0.109375q0.125 0.109375 0.125 0.28125q0 0.171875 -0.125 0.28125q-0.125 0.109375 -0.40625 0.109375l-3.640625 0zm14.589355 7.25l0 -1.140625q-1.609375 1.453125 -3.453125 1.453125q-1.140625 0 -1.734375 -0.625q-0.78125 -0.8125 -0.78125 -1.90625l0 -5.03125l-1.046875 0q-0.28125 0 -0.40625 -0.109375q-0.109375 -0.109375 -0.109375 -0.28125q0 -0.171875 0.109375 -0.28125q0.125 -0.109375 0.40625 -0.109375l1.828125 0l0 5.8125q0 0.765625 0.484375 1.265625q0.484375 0.484375 1.203125 0.484375q1.90625 0 3.5 -1.75l0 -5.03125l-1.4375 0q-0.28125 0 -0.40625 -0.109375q-0.125 -0.109375 -0.125 -0.28125q0 -0.171875 0.125 -0.28125q0.125 -0.109375 0.40625 -0.109375l2.203125 0l0 7.25l0.671875 0q0.265625 0 0.390625 0.109375q0.125 0.109375 0.125 0.28125q0 0.171875 -0.125 0.28125q-0.125 0.109375 -0.390625 0.109375l-1.4375 0zm6.2143555 -8.03125l0 1.171875q0.8125 -0.828125 1.46875 -1.140625q0.65625 -0.3125 1.484375 -0.3125q0.890625 0 1.625 0.375q0.515625 0.28125 0.9375 0.9375q0.421875 0.640625 0.421875 1.3125l0 4.90625l0.65625 0q0.28125 0 0.40625 0.109375q0.125 0.109375 0.125 0.28125q0 0.171875 -0.125 0.28125q-0.125 0.109375 -0.40625 0.109375l-2.078125 0q-0.296875 0 -0.421875 -0.109375q-0.109375 -0.109375 -0.109375 -0.28125q0 -0.171875 0.109375 -0.28125q0.125 -0.109375 0.421875 -0.109375l0.640625 0l0 -4.78125q0 -0.828125 -0.609375 -1.390625q-0.59375 -0.578125 -1.609375 -0.578125q-0.765625 0 -1.328125 0.3125q-0.5625 0.3125 -1.609375 1.546875l0 4.890625l0.875 0q0.28125 0 0.390625 0.109375q0.125 0.109375 0.125 0.28125q0 0.171875 -0.125 0.28125q-0.109375 0.109375 -0.390625 0.109375l-2.546875 0q-0.265625 0 -0.390625 -0.109375q-0.125 -0.109375 -0.125 -0.28125q0 -0.171875 0.125 -0.28125q0.125 -0.109375 0.390625 -0.109375l0.890625 0l0 -6.46875l-0.65625 0q-0.28125 0 -0.40625 -0.109375q-0.125 -0.109375 -0.125 -0.28125q0 -0.171875 0.125 -0.28125q0.125 -0.109375 0.40625 -0.109375l1.4375 0z" fill-rule="nonzero"/><path fill="#ff9900" d="m184.7081 58.745293l0 3.984375q0.578125 -0.359375 1.171875 -0.515625q0.609375 -0.171875 1.21875 -0.171875q0.953125 0 1.703125 0.328125q0.765625 0.328125 1.265625 1.03125q0.5 0.703125 0.5 1.78125l0 3.5q0.703125 0 0.921875 0.140625q0.4375 0.28125 0.4375 0.8125q0 0.40625 -0.28125 0.671875q-0.28125 0.25 -0.953125 0.25l-2.125 0q-0.671875 0 -0.96875 -0.25q-0.28125 -0.265625 -0.28125 -0.6875q0 -0.515625 0.4375 -0.796875q0.234375 -0.140625 0.9375 -0.140625l0 -3.375q0 -0.71875 -0.328125 -1.015625q-0.4375 -0.390625 -1.265625 -0.390625q-0.625 0 -1.109375 0.25q-0.46875 0.234375 -1.28125 1.046875l0 3.484375q0.71875 0 0.921875 0.140625q0.453125 0.28125 0.453125 0.8125q0 0.40625 -0.296875 0.671875q-0.28125 0.25 -0.953125 0.25l-2.125 0q-0.671875 0 -0.96875 -0.25q-0.28125 -0.265625 -0.28125 -0.6875q0 -0.515625 0.453125 -0.796875q0.21875 -0.140625 0.921875 -0.140625l0 -8.078125l-0.3125 0q-0.671875 0 -0.96875 -0.25q-0.28125 -0.265625 -0.28125 -0.6875q0 -0.40625 0.28125 -0.65625q0.296875 -0.265625 0.96875 -0.265625l2.1875 0zm12.664322 5.40625l0 3.75q0 0.59375 0.25 0.78125q0.375 0.3125 1.359375 0.3125q1.4375 0 2.640625 -0.609375q0.46875 -0.234375 0.734375 -0.234375q0.359375 0 0.625 0.265625q0.265625 0.265625 0.265625 0.671875q0 0.359375 -0.28125 0.625q-0.453125 0.421875 -1.765625 0.78125q-1.3125 0.359375 -2.21875 0.359375q-1.734375 0 -2.609375 -0.75q-0.875 -0.75 -0.875 -1.84375l0 -4.109375l-0.671875 0q-0.671875 0 -0.96875 -0.25q-0.28125 -0.265625 -0.28125 -0.6875q0 -0.40625 0.28125 -0.65625q0.296875 -0.265625 0.96875 -0.265625l0.671875 0l0 -1.6875q0 -0.671875 0.265625 -0.953125q0.265625 -0.296875 0.671875 -0.296875q0.421875 0 0.671875 0.296875q0.265625 0.28125 0.265625 0.953125l0 1.6875l3.453125 0q0.671875 0 0.953125 0.265625q0.296875 0.25 0.296875 0.671875q0 0.40625 -0.296875 0.671875q-0.28125 0.25 -0.953125 0.25l-3.453125 0zm8.773697 -1.859375l0 0.515625q0.453125 -0.4375 0.8125 -0.609375q0.375 -0.171875 0.859375 -0.171875q0.40625 0 0.8125 0.203125q0.40625 0.203125 0.78125 0.609375q0.484375 -0.40625 0.96875 -0.59375q0.5 -0.203125 1.03125 -0.203125q1.03125 0 1.6875 0.546875q0.84375 0.734375 0.84375 1.921875l0 4.171875q0.59375 0 0.875 0.265625q0.28125 0.265625 0.28125 0.6875q0 0.40625 -0.28125 0.671875q-0.28125 0.25 -0.953125 0.25l-1.78125 0l0 -5.890625q0 -0.4375 -0.15625 -0.59375q-0.15625 -0.171875 -0.46875 -0.171875q-0.3125 0 -0.578125 0.171875q-0.34375 0.21875 -0.828125 0.859375l0 3.75q0.59375 0 0.875 0.265625q0.28125 0.265625 0.28125 0.6875q0 0.40625 -0.28125 0.671875q-0.28125 0.25 -0.953125 0.25l-1.78125 0l0 -5.890625q0 -0.421875 -0.15625 -0.59375q-0.15625 -0.171875 -0.484375 -0.171875q-0.328125 0 -0.65625 0.21875q-0.3125 0.203125 -0.75 0.8125l0 3.75q0.578125 0 0.859375 0.265625q0.296875 0.265625 0.296875 0.6875q0 0.40625 -0.296875 0.671875q-0.28125 0.25 -0.953125 0.25l-1.6875 0q-0.671875 0 -0.953125 -0.25q-0.296875 -0.265625 -0.296875 -0.6875q0 -0.40625 0.28125 -0.671875q0.28125 -0.265625 0.875 -0.265625l0 -4.53125q-0.59375 0 -0.875 -0.265625q-0.28125 -0.265625 -0.28125 -0.671875q0 -0.40625 0.296875 -0.65625q0.28125 -0.265625 0.953125 -0.265625l1.78125 0zm15.008072 -3.546875l0 9.9375l2.234375 0q0.6875 0 0.96875 0.265625q0.28125 0.265625 0.28125 0.6875q0 0.40625 -0.28125 0.671875q-0.28125 0.25 -0.96875 0.25l-6.34375 0q-0.671875 0 -0.96875 -0.25q-0.28125 -0.265625 -0.28125 -0.6875q0 -0.40625 0.28125 -0.671875q0.296875 -0.265625 0.96875 -0.265625l2.25 0l0 -8.078125l-1.515625 0q-0.65625 0 -0.953125 -0.25q-0.296875 -0.265625 -0.296875 -0.6875q0 -0.40625 0.28125 -0.65625q0.296875 -0.265625 0.96875 -0.265625l3.375 0z" fill-rule="nonzero"/><path fill="#000000" d="m231.42789 65.93279q0 -1.0625 0.28125 -2.25q0.28125 -1.203125 1.0625 -2.765625q0.796875 -1.578125 1.15625 -1.90625q0.109375 -0.09375 0.234375 -0.09375q0.171875 0 0.28125 0.109375q0.125 0.109375 0.125 0.265625q0 0.09375 -0.0625 0.203125q-1.03125 1.875 -1.46875 3.40625q-0.421875 1.515625 -0.421875 3.03125q0 1.53125 0.421875 3.0625q0.4375 1.515625 1.46875 3.375q0.0625 0.125 0.0625 0.203125q0 0.171875 -0.125 0.28125q-0.109375 0.109375 -0.28125 0.109375q-0.125 0 -0.234375 -0.09375q-0.34375 -0.3125 -1.125 -1.84375q-0.78125 -1.53125 -1.078125 -2.703125q-0.296875 -1.1875 -0.296875 -2.390625zm11.88623 -7.40625l0 2.015625l-1.15625 0l0 -2.015625l1.15625 0zm0.015625 4.0l0 7.25l3.0625 0q0.296875 0 0.40625 0.109375q0.125 0.109375 0.125 0.28125q0 0.171875 -0.125 0.28125q-0.109375 0.109375 -0.40625 0.109375l-6.90625 0q-0.265625 0 -0.390625 -0.109375q-0.125 -0.109375 -0.125 -0.28125q0 -0.171875 0.125 -0.28125q0.125 -0.109375 0.390625 -0.109375l3.0625 0l0 -6.46875l-2.265625 0q-0.28125 0 -0.40625 -0.109375q-0.125 -0.109375 -0.125 -0.28125q0 -0.171875 0.125 -0.28125q0.125 -0.109375 0.40625 -0.109375l3.046875 0zm8.47998 0l0 1.171875q0.8125 -0.828125 1.46875 -1.140625q0.65625 -0.3125 1.484375 -0.3125q0.890625 0 1.625 0.375q0.515625 0.28125 0.9375 0.9375q0.421875 0.640625 0.421875 1.3125l0 4.90625l0.65625 0q0.28125 0 0.40625 0.109375q0.125 0.109375 0.125 0.28125q0 0.171875 -0.125 0.28125q-0.125 0.109375 -0.40625 0.109375l-2.078125 0q-0.296875 0 -0.421875 -0.109375q-0.109375 -0.109375 -0.109375 -0.28125q0 -0.171875 0.109375 -0.28125q0.125 -0.109375 0.421875 -0.109375l0.640625 0l0 -4.78125q0 -0.828125 -0.609375 -1.390625q-0.59375 -0.578125 -1.609375 -0.578125q-0.765625 0 -1.328125 0.3125q-0.5625 0.3125 -1.609375 1.546875l0 4.890625l0.875 0q0.28125 0 0.390625 0.109375q0.125 0.109375 0.125 0.28125q0 0.171875 -0.125 0.28125q-0.109375 0.109375 -0.390625 0.109375l-2.546875 0q-0.265625 0 -0.390625 -0.109375q-0.125 -0.109375 -0.125 -0.28125q0 -0.171875 0.125 -0.28125q0.125 -0.109375 0.390625 -0.109375l0.890625 0l0 -6.46875l-0.65625 0q-0.28125 0 -0.40625 -0.109375q-0.125 -0.109375 -0.125 -0.28125q0 -0.171875 0.125 -0.28125q0.125 -0.109375 0.40625 -0.109375l1.4375 0zm14.308105 -4.0l0 2.015625l-1.15625 0l0 -2.015625l1.15625 0zm0.015625 4.0l0 7.25l3.0625 0q0.296875 0 0.40625 0.109375q0.125 0.109375 0.125 0.28125q0 0.171875 -0.125 0.28125q-0.109375 0.109375 -0.40625 0.109375l-6.90625 0q-0.265625 0 -0.390625 -0.109375q-0.125 -0.109375 -0.125 -0.28125q0 -0.171875 0.125 -0.28125q0.125 -0.109375 0.390625 -0.109375l3.0625 0l0 -6.46875l-2.265625 0q-0.28125 0 -0.40625 -0.109375q-0.125 -0.109375 -0.125 -0.28125q0 -0.171875 0.125 -0.28125q0.125 -0.109375 0.40625 -0.109375l3.046875 0zm9.38623 0l4.234375 0q0.28125 0 0.390625 0.109375q0.125 0.109375 0.125 0.28125q0 0.171875 -0.125 0.28125q-0.109375 0.109375 -0.390625 0.109375l-4.234375 0l0 5.1875q0 0.6875 0.546875 1.140625q0.546875 0.453125 1.59375 0.453125q0.78125 0 1.703125 -0.234375q0.921875 -0.25 1.4375 -0.546875q0.1875 -0.109375 0.296875 -0.109375q0.15625 0 0.265625 0.125q0.109375 0.109375 0.109375 0.265625q0 0.140625 -0.125 0.25q-0.296875 0.3125 -1.4375 0.671875q-1.140625 0.359375 -2.1875 0.359375q-1.375 0 -2.1875 -0.640625q-0.796875 -0.640625 -0.796875 -1.734375l0 -5.1875l-1.4375 0q-0.28125 0 -0.40625 -0.109375q-0.109375 -0.109375 -0.109375 -0.28125q0 -0.171875 0.109375 -0.28125q0.125 -0.109375 0.40625 -0.109375l1.4375 0l0 -2.296875q0 -0.28125 0.109375 -0.40625q0.109375 -0.125 0.28125 -0.125q0.171875 0 0.28125 0.125q0.109375 0.125 0.109375 0.40625l0 2.296875zm12.839355 0l0.34375 0q0.515625 0 0.890625 0.375q0.375 0.359375 0.375 0.875q0 0.546875 -0.375 0.90625q-0.375 0.359375 -0.890625 0.359375l-0.34375 0q-0.515625 0 -0.890625 -0.359375q-0.359375 -0.375 -0.359375 -0.890625q0 -0.546875 0.375 -0.90625q0.375 -0.359375 0.875 -0.359375zm0 5.796875l0.34375 0q0.515625 0 0.890625 0.375q0.375 0.359375 0.375 0.875q0 0.53125 -0.375 0.90625q-0.375 0.359375 -0.890625 0.359375l-0.34375 0q-0.515625 0 -0.890625 -0.359375q-0.359375 -0.375 -0.359375 -0.890625q0 -0.546875 0.375 -0.90625q0.375 -0.359375 0.875 -0.359375z" fill-rule="nonzero"/><path fill="#980000" d="m313.2721 65.97967l-3.984375 0l0 2.703125l0.28125 0q0.6875 0 0.96875 0.265625q0.28125 0.265625 0.28125 0.6875q0 0.40625 -0.28125 0.671875q-0.28125 0.25 -0.96875 0.25l-2.28125 0q-0.671875 0 -0.96875 -0.25q-0.28125 -0.265625 -0.28125 -0.6875q0 -0.515625 0.453125 -0.796875q0.21875 -0.140625 0.921875 -0.140625l0 -7.296875q-0.484375 -0.046875 -0.734375 -0.296875q-0.25 -0.265625 -0.25 -0.640625q0 -0.421875 0.28125 -0.671875q0.28125 -0.265625 0.96875 -0.265625l1.890625 0q0.6875 0 0.96875 0.265625q0.28125 0.25 0.28125 0.671875q0 0.421875 -0.28125 0.6875q-0.28125 0.25 -0.96875 0.25l-0.28125 0l0 2.734375l3.984375 0l0 -2.734375l-0.296875 0q-0.671875 0 -0.953125 -0.25q-0.28125 -0.265625 -0.28125 -0.6875q0 -0.421875 0.28125 -0.671875q0.28125 -0.265625 0.953125 -0.265625l1.90625 0q0.671875 0 0.953125 0.265625q0.296875 0.25 0.296875 0.671875q0 0.375 -0.25 0.640625q-0.25 0.25 -0.734375 0.296875l0 7.296875q0.71875 0 0.921875 0.140625q0.453125 0.28125 0.453125 0.8125q0 0.40625 -0.296875 0.671875q-0.28125 0.25 -0.953125 0.25l-2.296875 0q-0.671875 0 -0.953125 -0.25q-0.28125 -0.265625 -0.28125 -0.6875q0 -0.40625 0.28125 -0.671875q0.296875 -0.265625 0.953125 -0.265625l0.296875 0l0 -2.703125zm10.054932 -4.59375l0 7.296875l1.265625 0q0.671875 0 0.953125 0.265625q0.296875 0.265625 0.296875 0.6875q0 0.40625 -0.296875 0.671875q-0.28125 0.25 -0.953125 0.25l-4.375 0q-0.671875 0 -0.96875 -0.25q-0.28125 -0.265625 -0.28125 -0.6875q0 -0.40625 0.28125 -0.671875q0.296875 -0.265625 0.96875 -0.265625l1.25 0l0 -7.296875l-2.03125 0l0 1.765625q0 0.671875 -0.265625 0.96875q-0.25 0.28125 -0.671875 0.28125q-0.40625 0 -0.671875 -0.28125q-0.25 -0.296875 -0.25 -0.96875l0 -3.640625l9.671875 0l0 3.640625q0 0.671875 -0.265625 0.96875q-0.25 0.28125 -0.671875 0.28125q-0.40625 0 -0.671875 -0.28125q-0.265625 -0.296875 -0.265625 -0.96875l0 -1.765625l-2.046875 0zm7.367462 1.734375l0 5.5625l0.6875 0q0.671875 0 0.953125 0.265625q0.28125 0.265625 0.28125 0.6875q0 0.40625 -0.28125 0.671875q-0.28125 0.25 -0.953125 0.25l-2.453125 0q-0.671875 0 -0.953125 -0.25q-0.296875 -0.265625 -0.296875 -0.6875q0 -0.40625 0.28125 -0.671875q0.28125 -0.265625 0.875 -0.265625l0 -7.296875q-0.5 -0.046875 -0.75 -0.296875q-0.25 -0.265625 -0.25 -0.640625q0 -0.421875 0.28125 -0.671875q0.296875 -0.265625 0.96875 -0.265625l2.046875 0l2.546875 5.625l2.5 -5.625l2.0625 0q0.671875 0 0.953125 0.265625q0.296875 0.25 0.296875 0.671875q0 0.375 -0.265625 0.640625q-0.25 0.25 -0.734375 0.296875l0 7.296875q0.59375 0 0.875 0.265625q0.296875 0.265625 0.296875 0.6875q0 0.40625 -0.296875 0.671875q-0.28125 0.25 -0.953125 0.25l-2.46875 0q-0.65625 0 -0.953125 -0.25q-0.28125 -0.265625 -0.28125 -0.6875q0 -0.40625 0.28125 -0.671875q0.296875 -0.265625 0.953125 -0.265625l0.6875 0l0 -5.5625l-2.140625 4.8125l-1.625 0l-2.171875 -4.8125zm13.336212 -1.734375l0 7.296875l4.03125 0l0 -1.765625q0 -0.671875 0.25 -0.953125q0.265625 -0.28125 0.6875 -0.28125q0.40625 0 0.671875 0.28125q0.265625 0.28125 0.265625 0.953125l0 3.640625l-8.84375 0q-0.6875 0 -0.96875 -0.25q-0.28125 -0.265625 -0.28125 -0.6875q0 -0.40625 0.28125 -0.671875q0.28125 -0.265625 0.96875 -0.265625l1.078125 0l0 -7.296875l-1.078125 0q-0.6875 0 -0.96875 -0.25q-0.28125 -0.265625 -0.28125 -0.6875q0 -0.421875 0.28125 -0.671875q0.28125 -0.265625 0.96875 -0.265625l4.03125 0q0.6875 0 0.96875 0.265625q0.28125 0.25 0.28125 0.671875q0 0.421875 -0.28125 0.6875q-0.28125 0.25 -0.96875 0.25l-1.09375 0z" fill-rule="nonzero"/><path fill="#000000" d="m355.945 68.32342l0.34375 0q0.515625 0 0.890625 0.375q0.375 0.359375 0.375 0.875q0 0.53125 -0.375 0.90625q-0.375 0.359375 -0.890625 0.359375l-0.34375 0q-0.515625 0 -0.890625 -0.359375q-0.359375 -0.375 -0.359375 -0.890625q0 -0.546875 0.375 -0.90625q0.375 -0.359375 0.875 -0.359375z" fill-rule="nonzero"/><path fill="#9900ff" d="m366.7375 66.02654q0 -1.59375 0.53125 -3.234375q0.390625 -1.203125 1.21875 -2.671875q0.59375 -1.0625 0.875 -1.296875q0.28125 -0.25 0.625 -0.25q0.40625 0 0.671875 0.28125q0.28125 0.265625 0.28125 0.65625q0 0.265625 -0.21875 0.625q-0.984375 1.609375 -1.4375 3.03125q-0.453125 1.40625 -0.453125 2.859375q0 1.453125 0.453125 2.875q0.453125 1.40625 1.4375 3.015625q0.21875 0.359375 0.21875 0.625q0 0.390625 -0.28125 0.65625q-0.265625 0.28125 -0.671875 0.28125q-0.34375 0 -0.59375 -0.21875q-0.359375 -0.328125 -0.96875 -1.4375q-0.859375 -1.609375 -1.1875 -2.65625q-0.5 -1.609375 -0.5 -3.140625zm12.664307 0q0 1.59375 -0.53125 3.234375q-0.390625 1.203125 -1.203125 2.65625q-0.59375 1.0625 -0.875 1.3125q-0.28125 0.25 -0.625 0.25q-0.40625 0 -0.6875 -0.28125q-0.265625 -0.265625 -0.265625 -0.65625q0 -0.265625 0.21875 -0.625q0.984375 -1.609375 1.4375 -3.015625q0.453125 -1.421875 0.453125 -2.875q0 -1.453125 -0.453125 -2.859375q-0.453125 -1.421875 -1.4375 -3.03125q-0.21875 -0.359375 -0.21875 -0.625q0 -0.390625 0.265625 -0.65625q0.28125 -0.28125 0.6875 -0.28125q0.328125 0 0.59375 0.21875q0.359375 0.3125 0.953125 1.4375q0.875 1.609375 1.1875 2.65625q0.5 1.609375 0.5 3.140625zm25.516174 0.078125l-7.796875 0l0 -1.703125l7.796875 0l0 1.703125zm9.242432 -0.859375l-6.046875 -3.359375q-0.453125 -0.25 -0.609375 -0.453125q-0.140625 -0.203125 -0.140625 -0.515625q0 -0.390625 0.28125 -0.671875q0.28125 -0.28125 0.671875 -0.28125q0.234375 0 0.71875 0.265625l9.015625 5.015625l-9.015625 5.0q-0.484375 0.28125 -0.71875 0.28125q-0.390625 0 -0.671875 -0.28125q-0.28125 -0.28125 -0.28125 -0.6875q0 -0.3125 0.140625 -0.515625q0.15625 -0.203125 0.609375 -0.453125l6.046875 -3.34375zm24.688019 -3.859375l0 5.296875q0 1.71875 -1.25 2.9375q-1.234375 1.203125 -2.984375 1.203125q-0.859375 0 -1.625 -0.296875q-0.75 -0.3125 -1.359375 -0.890625q-0.609375 -0.59375 -0.953125 -1.234375q-0.328125 -0.65625 -0.328125 -1.71875l0 -5.296875q-0.59375 0 -0.875 -0.265625q-0.28125 -0.265625 -0.28125 -0.671875q0 -0.421875 0.28125 -0.671875q0.28125 -0.265625 0.96875 -0.265625l2.453125 0q0.671875 0 0.953125 0.265625q0.28125 0.25 0.28125 0.671875q0 0.421875 -0.28125 0.6875q-0.28125 0.25 -0.953125 0.25l-0.6875 0l0 5.453125q0 0.84375 0.703125 1.484375q0.703125 0.640625 1.6875 0.640625q0.65625 0 1.21875 -0.3125q0.578125 -0.3125 0.9375 -0.90625q0.234375 -0.359375 0.234375 -0.90625l0 -5.453125l-0.671875 0q-0.671875 0 -0.96875 -0.25q-0.28125 -0.265625 -0.28125 -0.6875q0 -0.421875 0.28125 -0.671875q0.296875 -0.265625 0.96875 -0.265625l2.453125 0q0.671875 0 0.953125 0.265625q0.28125 0.25 0.28125 0.671875q0 0.40625 -0.28125 0.671875q-0.28125 0.265625 -0.875 0.265625zm5.039337 0.90625l0 0.625q0.515625 -0.4375 1.125 -0.65625q0.625 -0.21875 1.34375 -0.21875q1.65625 0 2.625 1.03125q0.765625 0.8125 0.765625 2.140625l0 3.46875q0.578125 0 0.859375 0.265625q0.296875 0.265625 0.296875 0.6875q0 0.40625 -0.296875 0.671875q-0.28125 0.25 -0.953125 0.25l-1.6875 0q-0.671875 0 -0.96875 -0.25q-0.28125 -0.265625 -0.28125 -0.6875q0 -0.40625 0.28125 -0.671875q0.28125 -0.265625 0.875 -0.265625l0 -3.515625q0 -0.609375 -0.328125 -0.890625q-0.421875 -0.375 -1.28125 -0.375q-0.65625 0 -1.140625 0.25q-0.484375 0.25 -1.234375 1.0625l0 3.46875q0.71875 0 0.9375 0.140625q0.4375 0.28125 0.4375 0.8125q0 0.40625 -0.28125 0.671875q-0.28125 0.25 -0.96875 0.25l-2.109375 0q-0.6875 0 -0.96875 -0.25q-0.28125 -0.265625 -0.28125 -0.6875q0 -0.515625 0.4375 -0.796875q0.21875 -0.140625 0.9375 -0.140625l0 -4.53125q-0.59375 0 -0.875 -0.265625q-0.28125 -0.265625 -0.28125 -0.671875q0 -0.40625 0.28125 -0.65625q0.28125 -0.265625 0.96875 -0.265625l1.765625 0zm13.758057 -3.546875l0 1.96875l-2.21875 0l0 -1.96875l2.21875 0zm0.25 3.546875l0 6.390625l2.25 0q0.671875 0 0.953125 0.265625q0.296875 0.265625 0.296875 0.6875q0 0.40625 -0.296875 0.671875q-0.28125 0.25 -0.953125 0.25l-6.359375 0q-0.671875 0 -0.953125 -0.25q-0.28125 -0.265625 -0.28125 -0.6875q0 -0.40625 0.28125 -0.671875q0.28125 -0.265625 0.953125 -0.265625l2.25 0l0 -4.53125l-1.5 0q-0.671875 0 -0.96875 -0.25q-0.28125 -0.265625 -0.28125 -0.6875q0 -0.40625 0.28125 -0.65625q0.296875 -0.265625 0.96875 -0.265625l3.359375 0zm9.820557 1.859375l0 3.75q0 0.59375 0.25 0.78125q0.375 0.3125 1.359375 0.3125q1.4375 0 2.640625 -0.609375q0.46875 -0.234375 0.734375 -0.234375q0.359375 0 0.625 0.265625q0.265625 0.265625 0.265625 0.671875q0 0.359375 -0.28125 0.625q-0.453125 0.421875 -1.765625 0.78125q-1.3125 0.359375 -2.21875 0.359375q-1.734375 0 -2.609375 -0.75q-0.875 -0.75 -0.875 -1.84375l0 -4.109375l-0.671875 0q-0.671875 0 -0.96875 -0.25q-0.28125 -0.265625 -0.28125 -0.6875q0 -0.40625 0.28125 -0.65625q0.296875 -0.265625 0.96875 -0.265625l0.671875 0l0 -1.6875q0 -0.671875 0.265625 -0.953125q0.265625 -0.296875 0.671875 -0.296875q0.421875 0 0.671875 0.296875q0.265625 0.28125 0.265625 0.953125l0 1.6875l3.453125 0q0.671875 0 0.953125 0.265625q0.296875 0.25 0.296875 0.671875q0 0.40625 -0.296875 0.671875q-0.28125 0.25 -0.953125 0.25l-3.453125 0z" fill-rule="nonzero"/><path fill="#000000" d="m479.69324 65.94842q0 1.0625 -0.28125 2.265625q-0.265625 1.1875 -1.0625 2.75q-0.78125 1.578125 -1.140625 1.890625q-0.109375 0.109375 -0.25 0.109375q-0.15625 0 -0.28125 -0.109375q-0.109375 -0.109375 -0.109375 -0.28125q0 -0.078125 0.0625 -0.203125q1.015625 -1.859375 1.453125 -3.375q0.4375 -1.53125 0.4375 -3.046875q0 -1.53125 -0.4375 -3.046875q-0.4375 -1.53125 -1.453125 -3.40625q-0.0625 -0.109375 -0.0625 -0.203125q0 -0.15625 0.109375 -0.265625q0.125 -0.109375 0.28125 -0.109375q0.140625 0 0.25 0.09375q0.34375 0.328125 1.109375 1.859375q0.78125 1.515625 1.078125 2.703125q0.296875 1.171875 0.296875 2.375zm11.01123 -3.421875l0.34375 0q0.515625 0 0.890625 0.375q0.375 0.359375 0.375 0.875q0 0.546875 -0.375 0.90625q-0.375 0.359375 -0.890625 0.359375l-0.34375 0q-0.515625 0 -0.890625 -0.359375q-0.359375 -0.375 -0.359375 -0.890625q0 -0.546875 0.375 -0.90625q0.375 -0.359375 0.875 -0.359375zm0 5.796875l0.34375 0q0.515625 0 0.890625 0.375q0.375 0.359375 0.375 0.875q0 0.53125 -0.375 0.90625q-0.375 0.359375 -0.890625 0.359375l-0.34375 0q-0.515625 0 -0.890625 -0.359375q-0.359375 -0.375 -0.359375 -0.890625q0 -0.546875 0.375 -0.90625q0.375 -0.359375 0.875 -0.359375zm25.61621 -3.015625l-5.171875 0l0 4.46875l1.046875 0q0.28125 0 0.390625 0.109375q0.125 0.109375 0.125 0.28125q0 0.171875 -0.125 0.28125q-0.109375 0.109375 -0.390625 0.109375l-2.703125 0q-0.28125 0 -0.40625 -0.109375q-0.109375 -0.109375 -0.109375 -0.28125q0 -0.171875 0.109375 -0.28125q0.125 -0.109375 0.40625 -0.109375l0.875 0l0 -9.296875l-0.484375 0q-0.28125 0 -0.40625 -0.09375q-0.125 -0.109375 -0.125 -0.296875q0 -0.171875 0.125 -0.28125q0.125 -0.109375 0.40625 -0.109375l2.3125 0q0.28125 0 0.390625 0.109375q0.125 0.109375 0.125 0.28125q0 0.1875 -0.125 0.296875q-0.109375 0.09375 -0.390625 0.09375l-1.046875 0l0 4.046875l5.171875 0l0 -4.046875l-1.046875 0q-0.28125 0 -0.40625 -0.09375q-0.109375 -0.109375 -0.109375 -0.296875q0 -0.171875 0.109375 -0.28125q0.125 -0.109375 0.40625 -0.109375l2.3125 0q0.296875 0 0.40625 0.109375q0.125 0.109375 0.125 0.28125q0 0.1875 -0.125 0.296875q-0.109375 0.09375 -0.40625 0.09375l-0.484375 0l0 9.296875l0.890625 0q0.265625 0 0.390625 0.109375q0.125 0.109375 0.125 0.28125q0 0.171875 -0.125 0.28125q-0.125 0.109375 -0.390625 0.109375l-2.71875 0q-0.28125 0 -0.40625 -0.109375q-0.109375 -0.109375 -0.109375 -0.28125q0 -0.171875 0.109375 -0.28125q0.125 -0.109375 0.40625 -0.109375l1.046875 0l0 -4.46875zm9.151855 -4.828125l0 9.296875l2.015625 0q0.28125 0 0.390625 0.109375q0.125 0.109375 0.125 0.28125q0 0.171875 -0.125 0.28125q-0.109375 0.109375 -0.390625 0.109375l-4.828125 0q-0.28125 0 -0.40625 -0.109375q-0.125 -0.109375 -0.125 -0.28125q0 -0.171875 0.125 -0.28125q0.125 -0.109375 0.40625 -0.109375l2.015625 0l0 -9.296875l-3.1875 0l0 2.703125q0 0.28125 -0.109375 0.40625q-0.109375 0.125 -0.28125 0.125q-0.171875 0 -0.28125 -0.125q-0.109375 -0.125 -0.109375 -0.40625l0 -3.484375l8.734375 0l0 3.484375q0 0.28125 -0.109375 0.40625q-0.109375 0.125 -0.28125 0.125q-0.1875 0 -0.296875 -0.125q-0.09375 -0.125 -0.09375 -0.40625l0 -2.703125l-3.1875 0zm11.526855 6.828125l-0.890625 0l-3.0 -6.828125l-0.140625 0l0 9.296875l1.4375 0q0.265625 0 0.390625 0.109375q0.125 0.109375 0.125 0.28125q0 0.171875 -0.125 0.28125q-0.125 0.109375 -0.390625 0.109375l-2.875 0q-0.28125 0 -0.40625 -0.109375q-0.125 -0.109375 -0.125 -0.28125q0 -0.171875 0.125 -0.28125q0.125 -0.109375 0.40625 -0.109375l0.65625 0l0 -9.296875l-0.5 0q-0.28125 0 -0.40625 -0.09375q-0.109375 -0.109375 -0.109375 -0.296875q0 -0.171875 0.109375 -0.28125q0.125 -0.109375 0.40625 -0.109375l1.921875 0l2.9375 6.71875l2.90625 -6.71875l1.90625 0q0.296875 0 0.40625 0.109375q0.125 0.109375 0.125 0.28125q0 0.1875 -0.125 0.296875q-0.109375 0.09375 -0.40625 0.09375l-0.46875 0l0 9.296875l0.640625 0q0.296875 0 0.40625 0.109375q0.125 0.109375 0.125 0.28125q0 0.171875 -0.125 0.28125q-0.109375 0.109375 -0.40625 0.109375l-2.859375 0q-0.28125 0 -0.40625 -0.109375q-0.125 -0.109375 -0.125 -0.28125q0 -0.171875 0.109375 -0.28125q0.125 -0.109375 0.421875 -0.109375l1.4375 0l0 -9.296875l-0.171875 0l-2.9375 6.828125zm9.526855 -6.828125l0 9.296875l5.1875 0l0 -3.09375q0 -0.28125 0.109375 -0.390625q0.109375 -0.125 0.28125 -0.125q0.171875 0 0.28125 0.109375q0.109375 0.109375 0.109375 0.40625l0 3.875l-8.609375 0q-0.28125 0 -0.40625 -0.109375q-0.109375 -0.109375 -0.109375 -0.28125q0 -0.171875 0.109375 -0.28125q0.125 -0.109375 0.40625 -0.109375l1.859375 0l0 -9.296875l-1.859375 0q-0.28125 0 -0.40625 -0.09375q-0.109375 -0.109375 -0.109375 -0.296875q0 -0.171875 0.109375 -0.28125q0.125 -0.109375 0.40625 -0.109375l4.5 0q0.28125 0 0.390625 0.109375q0.125 0.109375 0.125 0.28125q0 0.1875 -0.125 0.296875q-0.109375 0.09375 -0.390625 0.09375l-1.859375 0z" fill-rule="nonzero"/><path fill="#000000" fill-opacity="0.0" d="m95.18635 118.54593l173.95276 0l0 29.543304l-173.95276 0z" fill-rule="evenodd"/><path fill="#000000" d="m105.4051 139.17758l0 -11.453125l1.5625 0l6.015625 8.984375l0 -8.984375l1.453125 0l0 11.453125l-1.5625 0l-6.015625 -9.0l0 9.0l-1.453125 0zm16.804688 -1.03125q-0.78125 0.671875 -1.5 0.953125q-0.71875 0.265625 -1.546875 0.265625q-1.375 0 -2.109375 -0.671875q-0.734375 -0.671875 -0.734375 -1.703125q0 -0.609375 0.28125 -1.109375q0.28125 -0.515625 0.71875 -0.8125q0.453125 -0.3125 1.015625 -0.46875q0.421875 -0.109375 1.25 -0.203125q1.703125 -0.203125 2.515625 -0.484375q0 -0.296875 0 -0.375q0 -0.859375 -0.390625 -1.203125q-0.546875 -0.484375 -1.609375 -0.484375q-0.984375 0 -1.46875 0.359375q-0.46875 0.34375 -0.6875 1.21875l-1.375 -0.1875q0.1875 -0.875 0.609375 -1.421875q0.4375 -0.546875 1.25 -0.828125q0.8125 -0.296875 1.875 -0.296875q1.0625 0 1.71875 0.25q0.671875 0.25 0.984375 0.625q0.3125 0.375 0.4375 0.953125q0.078125 0.359375 0.078125 1.296875l0 1.875q0 1.96875 0.078125 2.484375q0.09375 0.515625 0.359375 1.0l-1.46875 0q-0.21875 -0.4375 -0.28125 -1.03125zm-0.109375 -3.140625q-0.765625 0.3125 -2.296875 0.53125q-0.875 0.125 -1.234375 0.28125q-0.359375 0.15625 -0.5625 0.46875q-0.1875 0.296875 -0.1875 0.65625q0 0.5625 0.421875 0.9375q0.4375 0.375 1.25 0.375q0.8125 0 1.4375 -0.34375q0.640625 -0.359375 0.9375 -0.984375q0.234375 -0.46875 0.234375 -1.40625l0 -0.515625zm3.6015625 4.171875l0 -8.296875l1.25 0l0 1.15625q0.390625 -0.609375 1.03125 -0.96875q0.6562576 -0.375 1.4843826 -0.375q0.921875 0 1.515625 0.390625q0.59375 0.375 0.828125 1.0625q0.984375 -1.453125 2.5625 -1.453125q1.234375 0 1.890625 0.6875q0.671875 0.671875 0.671875 2.09375l0 5.703125l-1.390625 0l0 -5.234375q0 -0.84375 -0.140625 -1.203125q-0.140625 -0.375 -0.5 -0.59375q-0.359375 -0.234375 -0.84375 -0.234375q-0.875 0 -1.453125 0.578125q-0.578125 0.578125 -0.578125 1.859375l0 4.828125l-1.40625 0l0 -5.390625q0 -0.9375 -0.34375 -1.40625q-0.34375 -0.46875 -1.125 -0.46875q-0.59375 0 -1.09375 0.3125q-0.5000076 0.3125 -0.7343826 0.921875q-0.21875 0.59375 -0.21875 1.71875l0 4.3125l-1.40625 0zm19.000008 -2.671875l1.453125 0.171875q-0.34375 1.28125 -1.28125 1.984375q-0.921875 0.703125 -2.359375 0.703125q-1.828125 0 -2.890625 -1.125q-1.0625 -1.125 -1.0625 -3.140625q0 -2.09375 1.078125 -3.25q1.078125 -1.15625 2.796875 -1.15625q1.65625 0 2.703125 1.140625q1.0625 1.125 1.0625 3.171875q0 0.125 0 0.375l-6.1875 0q0.078125 1.375 0.765625 2.109375q0.703125 0.71875 1.734375 0.71875q0.78125 0 1.328125 -0.40625q0.546875 -0.40625 0.859375 -1.296875zm-4.609375 -2.28125l4.625 0q-0.09375 -1.046875 -0.53125 -1.5625q-0.671875 -0.8125 -1.734375 -0.8125q-0.96875 0 -1.640625 0.65625q-0.65625 0.640625 -0.71875 1.71875zm11.75 0.796875q0 -2.296875 1.28125 -3.40625q1.078125 -0.921875 2.609375 -0.921875q1.71875 0 2.796875 1.125q1.09375 1.109375 1.09375 3.09375q0 1.59375 -0.484375 2.515625q-0.484375 0.921875 -1.40625 1.4375q-0.90625 0.5 -2.0 0.5q-1.734375 0 -2.8125 -1.109375q-1.078125 -1.125 -1.078125 -3.234375zm1.453125 0q0 1.59375 0.6875 2.390625q0.703125 0.796875 1.75 0.796875q1.046875 0 1.734375 -0.796875q0.703125 -0.796875 0.703125 -2.4375q0 -1.53125 -0.703125 -2.328125q-0.6875 -0.796875 -1.734375 -0.796875q-1.046875 0 -1.75 0.796875q-0.6875 0.78125 -0.6875 2.375zm8.3046875 4.15625l0 -7.203125l-1.234375 0l0 -1.09375l1.234375 0l0 -0.890625q0 -0.828125 0.15625 -1.234375q0.203125 -0.546875 0.703125 -0.890625q0.515625 -0.34375 1.4375 -0.34375q0.59375 0 1.3125 0.140625l-0.203125 1.234375q-0.4375 -0.078125 -0.828125 -0.078125q-0.640625 0 -0.90625 0.28125q-0.265625 0.265625 -0.265625 1.015625l0 0.765625l1.609375 0l0 1.09375l-1.609375 0l0 7.203125l-1.40625 0zm11.625 -1.265625l0.203125 1.25q-0.59375 0.125 -1.0625 0.125q-0.765625 0 -1.1875 -0.234375q-0.421875 -0.25 -0.59375 -0.640625q-0.171875 -0.40625 -0.171875 -1.671875l0 -4.765625l-1.03125 0l0 -1.09375l1.03125 0l0 -2.0625l1.40625 -0.84375l0 2.90625l1.40625 0l0 1.09375l-1.40625 0l0 4.84375q0 0.609375 0.0625 0.78125q0.078125 0.171875 0.25 0.28125q0.171875 0.09375 0.484375 0.09375q0.234375 0 0.609375 -0.0625zm1.3828125 1.265625l0 -11.453125l1.40625 0l0 4.109375q0.984375 -1.140625 2.484375 -1.140625q0.921875 0 1.59375 0.359375q0.6875 0.359375 0.96875 1.0q0.296875 0.640625 0.296875 1.859375l0 5.265625l-1.40625 0l0 -5.265625q0 -1.046875 -0.453125 -1.53125q-0.453125 -0.484375 -1.296875 -0.484375q-0.625 0 -1.171875 0.328125q-0.546875 0.328125 -0.78125 0.890625q-0.234375 0.546875 -0.234375 1.515625l0 4.546875l-1.40625 0zm14.5703125 -2.671875l1.453125 0.171875q-0.34375 1.28125 -1.28125 1.984375q-0.921875 0.703125 -2.359375 0.703125q-1.828125 0 -2.890625 -1.125q-1.0625 -1.125 -1.0625 -3.140625q0 -2.09375 1.078125 -3.25q1.078125 -1.15625 2.796875 -1.15625q1.65625 0 2.703125 1.140625q1.0625 1.125 1.0625 3.171875q0 0.125 0 0.375l-6.1875 0q0.078125 1.375 0.765625 2.109375q0.703125 0.71875 1.734375 0.71875q0.78125 0 1.328125 -0.40625q0.546875 -0.40625 0.859375 -1.296875zm-4.609375 -2.28125l4.625 0q-0.09375 -1.046875 -0.53125 -1.5625q-0.671875 -0.8125 -1.734375 -0.8125q-0.96875 0 -1.640625 0.65625q-0.65625 0.640625 -0.71875 1.71875zm12.609375 4.953125l0 -7.203125l-1.234375 0l0 -1.09375l1.234375 0l0 -0.890625q0 -0.828125 0.15625 -1.234375q0.203125 -0.546875 0.703125 -0.890625q0.515625 -0.34375 1.4375 -0.34375q0.59375 0 1.3125 0.140625l-0.203125 1.234375q-0.4375 -0.078125 -0.828125 -0.078125q-0.640625 0 -0.90625 0.28125q-0.265625 0.265625 -0.265625 1.015625l0 0.765625l1.609375 0l0 1.09375l-1.609375 0l0 7.203125l-1.40625 0zm9.5546875 0l0 -1.21875q-0.96875 1.40625 -2.640625 1.40625q-0.734375 0 -1.375 -0.28125q-0.625 -0.28125 -0.9375 -0.703125q-0.3125 -0.4375 -0.4375 -1.046875q-0.078125 -0.421875 -0.078125 -1.3125l0 -5.140625l1.40625 0l0 4.59375q0 1.109375 0.078125 1.484375q0.140625 0.5625 0.5625 0.875q0.4375 0.3125 1.0625 0.3125q0.640625 0 1.1875 -0.3125q0.5625 -0.328125 0.78125 -0.890625q0.234375 -0.5625 0.234375 -1.625l0 -4.4375l1.40625 0l0 8.296875l-1.25 0zm3.4609375 0l0 -8.296875l1.265625 0l0 1.171875q0.90625 -1.359375 2.640625 -1.359375q0.75 0 1.375 0.265625q0.625 0.265625 0.9375 0.703125q0.3125 0.4375 0.4375 1.046875q0.078125 0.390625 0.078125 1.359375l0 5.109375l-1.40625 0l0 -5.046875q0 -0.859375 -0.171875 -1.28125q-0.15625 -0.4375 -0.578125 -0.6875q-0.40625 -0.25 -0.96875 -0.25q-0.90625 0 -1.5625 0.578125q-0.640625 0.5625 -0.640625 2.15625l0 4.53125l-1.40625 0zm14.3046875 -3.046875l1.390625 0.1875q-0.234375 1.421875 -1.171875 2.234375q-0.921875 0.8125 -2.28125 0.8125q-1.703125 0 -2.75 -1.109375q-1.03125 -1.125 -1.03125 -3.203125q0 -1.34375 0.4375 -2.34375q0.453125 -1.015625 1.359375 -1.515625q0.921875 -0.5 1.984375 -0.5q1.359375 0 2.21875 0.6875q0.859375 0.671875 1.09375 1.9375l-1.359375 0.203125q-0.203125 -0.828125 -0.703125 -1.25q-0.484375 -0.421875 -1.1875 -0.421875q-1.0625 0 -1.734375 0.765625q-0.65625 0.75 -0.65625 2.40625q0 1.671875 0.640625 2.4375q0.640625 0.75 1.671875 0.75q0.828125 0 1.375 -0.5q0.5625 -0.515625 0.703125 -1.578125zm5.65625 1.78125l0.203125 1.25q-0.59375 0.125 -1.0625 0.125q-0.765625 0 -1.1875 -0.234375q-0.421875 -0.25 -0.59375 -0.640625q-0.171875 -0.40625 -0.171875 -1.671875l0 -4.765625l-1.03125 0l0 -1.09375l1.03125 0l0 -2.0625l1.40625 -0.84375l0 2.90625l1.40625 0l0 1.09375l-1.40625 0l0 4.84375q0 0.609375 0.0625 0.78125q0.078125 0.171875 0.25 0.28125q0.171875 0.09375 0.484375 0.09375q0.234375 0 0.609375 -0.0625zm1.3828125 -8.578125l0 -1.609375l1.40625 0l0 1.609375l-1.40625 0zm0 9.84375l0 -8.296875l1.40625 0l0 8.296875l-1.40625 0zm3.0234375 -4.15625q0 -2.296875 1.28125 -3.40625q1.078125 -0.921875 2.609375 -0.921875q1.71875 0 2.796875 1.125q1.09375 1.109375 1.09375 3.09375q0 1.59375 -0.484375 2.515625q-0.484375 0.921875 -1.40625 1.4375q-0.90625 0.5 -2.0 0.5q-1.734375 0 -2.8125 -1.109375q-1.078125 -1.125 -1.078125 -3.234375zm1.453125 0q0 1.59375 0.6875 2.390625q0.703125 0.796875 1.75 0.796875q1.046875 0 1.734375 -0.796875q0.703125 -0.796875 0.703125 -2.4375q0 -1.53125 -0.703125 -2.328125q-0.6875 -0.796875 -1.734375 -0.796875q-1.046875 0 -1.75 0.796875q-0.6875 0.78125 -0.6875 2.375zm7.9765625 4.15625l0 -8.296875l1.265625 0l0 1.171875q0.90625 -1.359375 2.640625 -1.359375q0.75 0 1.375 0.265625q0.625 0.265625 0.9375 0.703125q0.3125 0.4375 0.4375 1.046875q0.078125 0.390625 0.078125 1.359375l0 5.109375l-1.40625 0l0 -5.046875q0 -0.859375 -0.171875 -1.28125q-0.15625 -0.4375 -0.578125 -0.6875q-0.40625 -0.25 -0.96875 -0.25q-0.90625 0 -1.5625 0.578125q-0.640625 0.5625 -0.640625 2.15625l0 4.53125l-1.40625 0z" fill-rule="nonzero"/><path fill="#000000" fill-opacity="0.0" d="m196.11548 111.59843l0 -29.543312" fill-rule="evenodd"/><path stroke="#000000" stroke-width="1.0" stroke-linejoin="round" stroke-linecap="butt" d="m196.11548 111.59843l0 -23.543312" fill-rule="evenodd"/><path fill="#000000" stroke="#000000" stroke-width="1.0" stroke-linecap="butt" d="m197.76721 88.055115l-1.6517334 -4.5380936l-1.6517181 4.5380936z" fill-rule="evenodd"/><path fill="#000000" fill-opacity="0.0" d="m474.2047 118.002625l2.6141968 0l0 1.7322845l-2.6141968 0z" fill-rule="evenodd"/><path fill="#000000" fill-opacity="0.0" d="m307.01837 118.002625l268.18896 0l0 29.543304l-268.18896 0z" fill-rule="evenodd"/><path fill="#000000" d="m316.79962 133.05615q0 -2.859375 1.53125 -4.46875q1.53125 -1.609375 3.953125 -1.609375q1.578125 0 2.84375 0.765625q1.28125 0.75 1.953125 2.109375q0.671875 1.34375 0.671875 3.0625q0 1.75 -0.703125 3.125q-0.703125 1.375 -2.0 2.09375q-1.28125 0.703125 -2.78125 0.703125q-1.609375 0 -2.890625 -0.78125q-1.265625 -0.796875 -1.921875 -2.140625q-0.65625 -1.359375 -0.65625 -2.859375zm1.5625 0.015625q0 2.078125 1.109375 3.265625q1.109375 1.1875 2.796875 1.1875q1.703125 0 2.8125 -1.203125q1.109375 -1.203125 1.109375 -3.40625q0 -1.40625 -0.484375 -2.4375q-0.46875 -1.046875 -1.375 -1.625q-0.90625 -0.578125 -2.046875 -0.578125q-1.609375 0 -2.765625 1.109375q-1.15625 1.109375 -1.15625 3.6875zm12.4609375 5.5625l-1.3125 0l0 -11.453125l1.40625 0l0 4.078125q0.890625 -1.109375 2.28125 -1.109375q0.765625 0 1.4375 0.3125q0.6875 0.296875 1.125 0.859375q0.453125 0.5625 0.703125 1.359375q0.25 0.78125 0.25 1.671875q0 2.140625 -1.0625 3.3125q-1.046875 1.15625 -2.53125 1.15625q-1.46875 0 -2.296875 -1.234375l0 1.046875zm-0.015625 -4.21875q0 1.5 0.40625 2.15625q0.65625 1.09375 1.796875 1.09375q0.921875 0 1.59375 -0.796875q0.671875 -0.8125 0.671875 -2.390625q0 -1.625 -0.65625 -2.390625q-0.640625 -0.78125 -1.546875 -0.78125q-0.921875 0 -1.59375 0.796875q-0.671875 0.796875 -0.671875 2.3125zm7.6015625 -5.609375l0 -1.625l1.40625 0l0 1.625l-1.40625 0zm-1.78125 13.046875l0.265625 -1.1875q0.421875 0.109375 0.671875 0.109375q0.421875 0 0.625 -0.296875q0.21875 -0.28125 0.21875 -1.421875l0 -8.71875l1.40625 0l0 8.75q0 1.53125 -0.390625 2.140625q-0.515625 0.78125 -1.6875 0.78125q-0.578125 0 -1.109375 -0.15625zm11.0234375 -5.890625l1.453125 0.171875q-0.34375 1.28125 -1.28125 1.984375q-0.921875 0.703125 -2.359375 0.703125q-1.828125 0 -2.890625 -1.125q-1.0625 -1.125 -1.0625 -3.140625q0 -2.09375 1.078125 -3.25q1.078125 -1.15625 2.796875 -1.15625q1.65625 0 2.703125 1.140625q1.0625 1.125 1.0625 3.171875q0 0.125 0 0.375l-6.1875 0q0.078125 1.375 0.765625 2.109375q0.703125 0.71875 1.734375 0.71875q0.78125 0 1.328125 -0.40625q0.546875 -0.40625 0.859375 -1.296875zm-4.609375 -2.28125l4.625 0q-0.09375 -1.046875 -0.53125 -1.5625q-0.671875 -0.8125 -1.734375 -0.8125q-0.96875 0 -1.640625 0.65625q-0.65625 0.640625 -0.71875 1.71875zm13.2421875 1.90625l1.390625 0.1875q-0.234375 1.421875 -1.171875 2.234375q-0.921875 0.8125 -2.28125 0.8125q-1.703125 0 -2.75 -1.109375q-1.03125 -1.125 -1.03125 -3.203125q0 -1.34375 0.4375 -2.34375q0.453125 -1.015625 1.359375 -1.515625q0.921875 -0.5 1.984375 -0.5q1.359375 0 2.21875 0.6875q0.859375 0.671875 1.09375 1.9375l-1.359375 0.203125q-0.203125 -0.828125 -0.703125 -1.25q-0.484375 -0.421875 -1.1875 -0.421875q-1.0625 0 -1.734375 0.765625q-0.65625 0.75 -0.65625 2.40625q0 1.671875 0.640625 2.4375q0.640625 0.75 1.671875 0.75q0.828125 0 1.375 -0.5q0.5625 -0.515625 0.703125 -1.578125zm5.65625 1.78125l0.203125 1.25q-0.59375 0.125 -1.0625 0.125q-0.765625 0 -1.1875 -0.234375q-0.421875 -0.25 -0.59375 -0.640625q-0.171875 -0.40625 -0.171875 -1.671875l0 -4.765625l-1.03125 0l0 -1.09375l1.03125 0l0 -2.0625l1.40625 -0.84375l0 2.90625l1.40625 0l0 1.09375l-1.40625 0l0 4.84375q0 0.609375 0.0625 0.78125q0.078125 0.171875 0.25 0.28125q0.171875 0.09375 0.484375 0.09375q0.234375 0 0.609375 -0.0625zm5.296875 -2.890625q0 -2.296875 1.28125 -3.40625q1.078125 -0.921875 2.609375 -0.921875q1.71875 0 2.796875 1.125q1.09375 1.109375 1.09375 3.09375q0 1.59375 -0.484375 2.515625q-0.484375 0.921875 -1.40625 1.4375q-0.90625 0.5 -2.0 0.5q-1.734375 0 -2.8125 -1.109375q-1.078125 -1.125 -1.078125 -3.234375zm1.453125 0q0 1.59375 0.6875 2.390625q0.703125 0.796875 1.75 0.796875q1.046875 0 1.734375 -0.796875q0.703125 -0.796875 0.703125 -2.4375q0 -1.53125 -0.703125 -2.328125q-0.6875 -0.796875 -1.734375 -0.796875q-1.046875 0 -1.75 0.796875q-0.6875 0.78125 -0.6875 2.375zm7.9765625 4.15625l0 -8.296875l1.265625 0l0 1.171875q0.90625 -1.359375 2.640625 -1.359375q0.75 0 1.375 0.265625q0.625 0.265625 0.9375 0.703125q0.3125 0.4375 0.4375 1.046875q0.078125 0.390625 0.078125 1.359375l0 5.109375l-1.40625 0l0 -5.046875q0 -0.859375 -0.171875 -1.28125q-0.15625 -0.4375 -0.578125 -0.6875q-0.40625 -0.25 -0.96875 -0.25q-0.90625 0 -1.5625 0.578125q-0.640625 0.5625 -0.640625 2.15625l0 4.53125l-1.40625 0zm14.875 0l-2.546875 -8.296875l1.453125 0l1.328125 4.78125l0.484375 1.78125q0.03125 -0.125 0.4375 -1.703125l1.3125 -4.859375l1.453125 0l1.234375 4.8125l0.421875 1.578125l0.46875 -1.59375l1.421875 -4.796875l1.375 0l-2.59375 8.296875l-1.46875 0l-1.3125 -4.96875l-0.328125 -1.421875l-1.671875 6.390625l-1.46875 0zm10.0234375 0l0 -11.453125l1.40625 0l0 4.109375q0.984375 -1.140625 2.484375 -1.140625q0.921875 0 1.59375 0.359375q0.6875 0.359375 0.96875 1.0q0.296875 0.640625 0.296875 1.859375l0 5.265625l-1.40625 0l0 -5.265625q0 -1.046875 -0.453125 -1.53125q-0.453125 -0.484375 -1.296875 -0.484375q-0.625 0 -1.171875 0.328125q-0.546875 0.328125 -0.78125 0.890625q-0.234375 0.546875 -0.234375 1.515625l0 4.546875l-1.40625 0zm8.8984375 -9.84375l0 -1.609375l1.40625 0l0 1.609375l-1.40625 0zm0 9.84375l0 -8.296875l1.40625 0l0 8.296875l-1.40625 0zm8.9609375 -3.046875l1.390625 0.1875q-0.234375 1.421875 -1.171875 2.234375q-0.921875 0.8125 -2.28125 0.8125q-1.703125 0 -2.75 -1.109375q-1.03125 -1.125 -1.03125 -3.203125q0 -1.34375 0.4375 -2.34375q0.453125 -1.015625 1.359375 -1.515625q0.921875 -0.5 1.984375 -0.5q1.359375 0 2.21875 0.6875q0.859375 0.671875 1.09375 1.9375l-1.359375 0.203125q-0.203125 -0.828125 -0.703125 -1.25q-0.484375 -0.421875 -1.1875 -0.421875q-1.0625 0 -1.734375 0.765625q-0.65625 0.75 -0.65625 2.40625q0 1.671875 0.640625 2.4375q0.640625 0.75 1.671875 0.75q0.828125 0 1.375 -0.5q0.5625 -0.515625 0.703125 -1.578125zm2.59375 3.046875l0 -11.453125l1.40625 0l0 4.109375q0.984375 -1.140625 2.484375 -1.140625q0.921875 0 1.59375 0.359375q0.6875 0.359375 0.96875 1.0q0.296875 0.640625 0.296875 1.859375l0 5.265625l-1.40625 0l0 -5.265625q0 -1.046875 -0.453125 -1.53125q-0.453125 -0.484375 -1.296875 -0.484375q-0.625 0 -1.171875 0.328125q-0.546875 0.328125 -0.78125 0.890625q-0.234375 0.546875 -0.234375 1.515625l0 4.546875l-1.40625 0zm14.875 0l-2.546875 -8.296875l1.453125 0l1.328125 4.78125l0.484375 1.78125q0.03125 -0.125 0.4375 -1.703125l1.3125 -4.859375l1.453125 0l1.234375 4.8125l0.421875 1.578125l0.46875 -1.59375l1.421875 -4.796875l1.375 0l-2.59375 8.296875l-1.46875 0l-1.3125 -4.96875l-0.328125 -1.421875l-1.671875 6.390625l-1.46875 0zm15.6953125 -2.671875l1.453125 0.171875q-0.34375 1.28125 -1.28125 1.984375q-0.921875 0.703125 -2.359375 0.703125q-1.828125 0 -2.890625 -1.125q-1.0625 -1.125 -1.0625 -3.140625q0 -2.09375 1.078125 -3.25q1.078125 -1.15625 2.796875 -1.15625q1.65625 0 2.703125 1.140625q1.0625 1.125 1.0625 3.171875q0 0.125 0 0.375l-6.1875 0q0.078125 1.375 0.765625 2.109375q0.703125 0.71875 1.734375 0.71875q0.78125 0 1.328125 -0.40625q0.546875 -0.40625 0.859375 -1.296875zm-4.609375 -2.28125l4.625 0q-0.09375 -1.046875 -0.53125 -1.5625q-0.671875 -0.8125 -1.734375 -0.8125q-0.96875 0 -1.640625 0.65625q-0.65625 0.640625 -0.71875 1.71875zm17.65625 4.953125l0 -1.046875q-0.78125 1.234375 -2.3125 1.234375q-1.0 0 -1.828125 -0.546875q-0.828125 -0.546875 -1.296875 -1.53125q-0.453125 -0.984375 -0.453125 -2.25q0 -1.25 0.40625 -2.25q0.421875 -1.015625 1.25 -1.546875q0.828125 -0.546875 1.859375 -0.546875q0.75 0 1.328125 0.3125q0.59375 0.3125 0.953125 0.828125l0 -4.109375l1.40625 0l0 11.453125l-1.3125 0zm-4.4375 -4.140625q0 1.59375 0.671875 2.390625q0.671875 0.78125 1.578125 0.78125q0.921875 0 1.5625 -0.75q0.65625 -0.765625 0.65625 -2.3125q0 -1.703125 -0.65625 -2.5q-0.65625 -0.796875 -1.625 -0.796875q-0.9375 0 -1.5625 0.765625q-0.625 0.765625 -0.625 2.421875zm7.4296875 -0.015625q0 -2.296875 1.28125 -3.40625q1.078125 -0.921875 2.609375 -0.921875q1.71875 0 2.796875 1.125q1.09375 1.109375 1.09375 3.09375q0 1.59375 -0.484375 2.515625q-0.484375 0.921875 -1.40625 1.4375q-0.90625 0.5 -2.0 0.5q-1.734375 0 -2.8125 -1.109375q-1.078125 -1.125 -1.078125 -3.234375zm1.453125 0q0 1.59375 0.6875 2.390625q0.703125 0.796875 1.75 0.796875q1.046875 0 1.734375 -0.796875q0.703125 -0.796875 0.703125 -2.4375q0 -1.53125 -0.703125 -2.328125q-0.6875 -0.796875 -1.734375 -0.796875q-1.046875 0 -1.75 0.796875q-0.6875 0.78125 -0.6875 2.375zm11.859375 1.671875l1.390625 -0.21875q0.109375 0.84375 0.640625 1.296875q0.546875 0.4375 1.5 0.4375q0.96875 0 1.4375 -0.390625q0.46875 -0.40625 0.46875 -0.9375q0 -0.46875 -0.40625 -0.75q-0.296875 -0.1875 -1.4375 -0.46875q-1.546875 -0.390625 -2.15625 -0.671875q-0.59375 -0.296875 -0.90625 -0.796875q-0.296875 -0.5 -0.296875 -1.109375q0 -0.5625 0.25 -1.03125q0.25 -0.46875 0.6875 -0.78125q0.328125 -0.25 0.890625 -0.40625q0.578125 -0.171875 1.21875 -0.171875q0.984375 0 1.71875 0.28125q0.734375 0.28125 1.078125 0.765625q0.359375 0.46875 0.5 1.28125l-1.375 0.1875q-0.09375 -0.640625 -0.546875 -1.0q-0.453125 -0.359375 -1.265625 -0.359375q-0.96875 0 -1.390625 0.328125q-0.40625 0.3125 -0.40625 0.734375q0 0.28125 0.171875 0.5q0.171875 0.21875 0.53125 0.375q0.21875 0.078125 1.25 0.359375q1.484375 0.390625 2.078125 0.65625q0.59375 0.25 0.921875 0.734375q0.34375 0.484375 0.34375 1.203125q0 0.703125 -0.421875 1.328125q-0.40625 0.609375 -1.1875 0.953125q-0.765625 0.34375 -1.734375 0.34375q-1.625 0 -2.46875 -0.671875q-0.84375 -0.671875 -1.078125 -2.0zm8.03125 -1.671875q0 -2.296875 1.28125 -3.40625q1.078125 -0.921875 2.609375 -0.921875q1.71875 0 2.796875 1.125q1.09375 1.109375 1.09375 3.09375q0 1.59375 -0.484375 2.515625q-0.484375 0.921875 -1.40625 1.4375q-0.90625 0.5 -2.0 0.5q-1.734375 0 -2.8125 -1.109375q-1.078125 -1.125 -1.078125 -3.234375zm1.453125 0q0 1.59375 0.6875 2.390625q0.703125 0.796875 1.75 0.796875q1.046875 0 1.734375 -0.796875q0.703125 -0.796875 0.703125 -2.4375q0 -1.53125 -0.703125 -2.328125q-0.6875 -0.796875 -1.734375 -0.796875q-1.046875 0 -1.75 0.796875q-0.6875 0.78125 -0.6875 2.375zm7.9765625 4.15625l0 -8.296875l1.25 0l0 1.15625q0.390625 -0.609375 1.03125 -0.96875q0.65625 -0.375 1.484375 -0.375q0.921875 0 1.515625 0.390625q0.59375 0.375 0.828125 1.0625q0.984375 -1.453125 2.5625 -1.453125q1.234375 0 1.890625 0.6875q0.671875 0.671875 0.671875 2.09375l0 5.703125l-1.390625 0l0 -5.234375q0 -0.84375 -0.140625 -1.203125q-0.140625 -0.375 -0.5 -0.59375q-0.359375 -0.234375 -0.84375 -0.234375q-0.875 0 -1.453125 0.578125q-0.578125 0.578125 -0.578125 1.859375l0 4.828125l-1.40625 0l0 -5.390625q0 -0.9375 -0.34375 -1.40625q-0.34375 -0.46875 -1.125 -0.46875q-0.59375 0 -1.09375 0.3125q-0.5 0.3125 -0.734375 0.921875q-0.21875 0.59375 -0.21875 1.71875l0 4.3125l-1.40625 0zm19.0 -2.671875l1.453125 0.171875q-0.34375 1.28125 -1.28125 1.984375q-0.921875 0.703125 -2.359375 0.703125q-1.828125 0 -2.890625 -1.125q-1.0625 -1.125 -1.0625 -3.140625q0 -2.09375 1.078125 -3.25q1.078125 -1.15625 2.796875 -1.15625q1.65625 0 2.703125 1.140625q1.0625 1.125 1.0625 3.171875q0 0.125 0 0.375l-6.1875 0q0.078125 1.375 0.765625 2.109375q0.703125 0.71875 1.734375 0.71875q0.78125 0 1.328125 -0.40625q0.546875 -0.40625 0.859375 -1.296875zm-4.609375 -2.28125l4.625 0q-0.09375 -1.046875 -0.53125 -1.5625q-0.671875 -0.8125 -1.734375 -0.8125q-0.96875 0 -1.640625 0.65625q-0.65625 0.640625 -0.71875 1.71875zm10.8984375 3.6875l0.203125 1.25q-0.59375 0.125 -1.0625 0.125q-0.765625 0 -1.1875 -0.234375q-0.421875 -0.25 -0.59375 -0.640625q-0.171875 -0.40625 -0.171875 -1.671875l0 -4.765625l-1.03125 0l0 -1.09375l1.03125 0l0 -2.0625l1.40625 -0.84375l0 2.90625l1.40625 0l0 1.09375l-1.40625 0l0 4.84375q0 0.609375 0.0625 0.78125q0.078125 0.171875 0.25 0.28125q0.171875 0.09375 0.484375 0.09375q0.234375 0 0.609375 -0.0625zm1.3828125 1.265625l0 -11.453125l1.40625 0l0 4.109375q0.984375 -1.140625 2.484375 -1.140625q0.921875 0 1.59375 0.359375q0.6875 0.359375 0.96875 1.0q0.296875 0.640625 0.296875 1.859375l0 5.265625l-1.40625 0l0 -5.265625q0 -1.046875 -0.453125 -1.53125q-0.453125 -0.484375 -1.296875 -0.484375q-0.625 0 -1.171875 0.328125q-0.546875 0.328125 -0.78125 0.890625q-0.234375 0.546875 -0.234375 1.515625l0 4.546875l-1.40625 0zm8.8984375 -9.84375l0 -1.609375l1.40625 0l0 1.609375l-1.40625 0zm0 9.84375l0 -8.296875l1.40625 0l0 8.296875l-1.40625 0zm3.5546875 0l0 -8.296875l1.265625 0l0 1.171875q0.90625 -1.359375 2.640625 -1.359375q0.75 0 1.375 0.265625q0.625 0.265625 0.9375 0.703125q0.3125 0.4375 0.4375 1.046875q0.078125 0.390625 0.078125 1.359375l0 5.109375l-1.40625 0l0 -5.046875q0 -0.859375 -0.171875 -1.28125q-0.15625 -0.4375 -0.578125 -0.6875q-0.40625 -0.25 -0.96875 -0.25q-0.90625 0 -1.5625 0.578125q-0.640625 0.5625 -0.640625 2.15625l0 4.53125l-1.40625 0zm8.6328125 0.6875l1.375 0.203125q0.078125 0.640625 0.46875 0.921875q0.53125 0.390625 1.4375 0.390625q0.96875 0 1.5 -0.390625q0.53125 -0.390625 0.71875 -1.09375q0.109375 -0.421875 0.109375 -1.8125q-0.921875 1.09375 -2.296875 1.09375q-1.71875 0 -2.65625 -1.234375q-0.9375 -1.234375 -0.9375 -2.96875q0 -1.1875 0.421875 -2.1875q0.4375 -1.0 1.25 -1.546875q0.828125 -0.546875 1.921875 -0.546875q1.46875 0 2.421875 1.1875l0 -1.0l1.296875 0l0 7.171875q0 1.9375 -0.390625 2.75q-0.390625 0.8125 -1.25 1.28125q-0.859375 0.46875 -2.109375 0.46875q-1.484375 0 -2.40625 -0.671875q-0.90625 -0.671875 -0.875 -2.015625zm1.171875 -4.984375q0 1.625 0.640625 2.375q0.65625 0.75 1.625 0.75q0.96875 0 1.625 -0.734375q0.65625 -0.75 0.65625 -2.34375q0 -1.53125 -0.671875 -2.296875q-0.671875 -0.78125 -1.625 -0.78125q-0.9375 0 -1.59375 0.765625q-0.65625 0.765625 -0.65625 2.265625z" fill-rule="nonzero"/><path fill="#000000" fill-opacity="0.0" d="m325.07086 111.59843l0 -29.543312" fill-rule="evenodd"/><path stroke="#000000" stroke-width="1.0" stroke-linejoin="round" stroke-linecap="butt" d="m325.07086 111.59843l0 -23.543312" fill-rule="evenodd"/><path fill="#000000" stroke="#000000" stroke-width="1.0" stroke-linecap="butt" d="m326.7226 88.055115l-1.6517334 -4.5380936l-1.6517334 4.5380936z" fill-rule="evenodd"/><path fill="#000000" fill-opacity="0.0" d="m147.70341 166.22835l472.66138 0l0 140.31496l-472.66138 0z" fill-rule="evenodd"/><path fill="#ff9900" d="m160.37529 209.49333l0 3.984375q0.578125 -0.359375 1.171875 -0.515625q0.609375 -0.171875 1.21875 -0.171875q0.953125 0 1.703125 0.328125q0.765625 0.328125 1.265625 1.03125q0.5 0.703125 0.5 1.78125l0 3.5q0.703125 0 0.921875 0.140625q0.4375 0.28125 0.4375 0.8125q0 0.40625 -0.28125 0.671875q-0.28125 0.25 -0.953125 0.25l-2.125 0q-0.671875 0 -0.96875 -0.25q-0.28125 -0.265625 -0.28125 -0.6875q0 -0.515625 0.4375 -0.796875q0.234375 -0.140625 0.9375 -0.140625l0 -3.375q0 -0.71875 -0.328125 -1.015625q-0.4375 -0.390625 -1.265625 -0.390625q-0.625 0 -1.109375 0.25q-0.46875 0.234375 -1.28125 1.046875l0 3.484375q0.71875 0 0.921875 0.140625q0.453125 0.28125 0.453125 0.8125q0 0.40625 -0.296875 0.671875q-0.28125 0.25 -0.953125 0.25l-2.125 0q-0.671875 0 -0.96875 -0.25q-0.28125 -0.265625 -0.28125 -0.6875q0 -0.515625 0.453125 -0.796875q0.21875 -0.140625 0.921875 -0.140625l0 -8.078125l-0.3125 0q-0.671875 0 -0.96875 -0.25q-0.28125 -0.265625 -0.28125 -0.6875q0 -0.40625 0.28125 -0.65625q0.296875 -0.265625 0.96875 -0.265625l2.1875 0zm12.664322 5.40625l0 3.75q0 0.59375 0.25 0.78125q0.375 0.3125 1.359375 0.3125q1.4375 0 2.640625 -0.609375q0.46875 -0.234375 0.734375 -0.234375q0.359375 0 0.625 0.265625q0.265625 0.265625 0.265625 0.671875q0 0.359375 -0.28125 0.625q-0.453125 0.421875 -1.765625 0.78125q-1.3125 0.359375 -2.21875 0.359375q-1.734375 0 -2.609375 -0.75q-0.875 -0.75 -0.875 -1.84375l0 -4.109375l-0.671875 0q-0.671875 0 -0.96875 -0.25q-0.28125 -0.265625 -0.28125 -0.6875q0 -0.40625 0.28125 -0.65625q0.296875 -0.265625 0.96875 -0.265625l0.671875 0l0 -1.6875q0 -0.671875 0.265625 -0.953125q0.265625 -0.296875 0.671875 -0.296875q0.421875 0 0.671875 0.296875q0.265625 0.28125 0.265625 0.953125l0 1.6875l3.453125 0q0.671875 0 0.953125 0.265625q0.296875 0.25 0.296875 0.671875q0 0.40625 -0.296875 0.671875q-0.28125 0.25 -0.953125 0.25l-3.453125 0zm8.773697 -1.859375l0 0.515625q0.453125 -0.4375 0.8125 -0.609375q0.375 -0.171875 0.859375 -0.171875q0.40625 0 0.8125 0.203125q0.40625 0.203125 0.78125 0.609375q0.484375 -0.40625 0.96875 -0.59375q0.5 -0.203125 1.03125 -0.203125q1.03125 0 1.6875 0.546875q0.84375 0.734375 0.84375 1.921875l0 4.171875q0.59375 0 0.875 0.265625q0.28125 0.265625 0.28125 0.6875q0 0.40625 -0.28125 0.671875q-0.28125 0.25 -0.953125 0.25l-1.78125 0l0 -5.890625q0 -0.4375 -0.15625 -0.59375q-0.15625 -0.171875 -0.46875 -0.171875q-0.3125 0 -0.578125 0.171875q-0.34375 0.21875 -0.828125 0.859375l0 3.75q0.59375 0 0.875 0.265625q0.28125 0.265625 0.28125 0.6875q0 0.40625 -0.28125 0.671875q-0.28125 0.25 -0.953125 0.25l-1.78125 0l0 -5.890625q0 -0.421875 -0.15625 -0.59375q-0.15625 -0.171875 -0.484375 -0.171875q-0.328125 0 -0.65625 0.21875q-0.3125 0.203125 -0.75 0.8125l0 3.75q0.578125 0 0.859375 0.265625q0.296875 0.265625 0.296875 0.6875q0 0.40625 -0.296875 0.671875q-0.28125 0.25 -0.953125 0.25l-1.6875 0q-0.671875 0 -0.953125 -0.25q-0.296875 -0.265625 -0.296875 -0.6875q0 -0.40625 0.28125 -0.671875q0.28125 -0.265625 0.875 -0.265625l0 -4.53125q-0.59375 0 -0.875 -0.265625q-0.28125 -0.265625 -0.28125 -0.671875q0 -0.40625 0.296875 -0.65625q0.28125 -0.265625 0.953125 -0.265625l1.78125 0zm15.008072 -3.546875l0 9.9375l2.234375 0q0.6875 0 0.96875 0.265625q0.28125 0.265625 0.28125 0.6875q0 0.40625 -0.28125 0.671875q-0.28125 0.25 -0.96875 0.25l-6.34375 0q-0.671875 0 -0.96875 -0.25q-0.28125 -0.265625 -0.28125 -0.6875q0 -0.40625 0.28125 -0.671875q0.296875 -0.265625 0.96875 -0.265625l2.25 0l0 -8.078125l-1.515625 0q-0.65625 0 -0.953125 -0.25q-0.296875 -0.265625 -0.296875 -0.6875q0 -0.40625 0.28125 -0.65625q0.296875 -0.265625 0.96875 -0.265625l3.375 0z" fill-rule="nonzero"/><path fill="#9900ff" d="m218.65002 216.77458q0.328125 0.375 0.453125 0.734375q0.125 0.34375 0.125 1.125l0 2.96875q0 0.375 0.140625 0.53125q0.140625 0.171875 0.515625 0.203125q0.390625 0.03125 0.625 0.28125q0.25 0.265625 0.25 0.65625q0 0.40625 -0.28125 0.671875q-0.265625 0.28125 -0.703125 0.28125q-0.609375 0 -1.171875 -0.328125q-0.5625 -0.328125 -0.984375 -1.046875q-0.265625 -0.484375 -0.265625 -1.109375l0 -3.28125q0 -0.40625 -0.125 -0.546875q-0.125 -0.140625 -0.546875 -0.1875q-0.421875 -0.0625 -0.640625 -0.296875q-0.21875 -0.25 -0.21875 -0.65625q0 -0.40625 0.21875 -0.640625q0.21875 -0.25 0.640625 -0.296875q0.421875 -0.0625 0.515625 -0.171875q0.15625 -0.1875 0.15625 -0.578125l0 -3.109375q0 -1.0 0.71875 -1.734375q0.734375 -0.734375 1.703125 -0.734375q0.4375 0 0.703125 0.28125q0.28125 0.265625 0.28125 0.671875q0 0.375 -0.25 0.640625q-0.234375 0.25 -0.625 0.296875q-0.390625 0.03125 -0.5 0.15625q-0.15625 0.1875 -0.15625 0.5625l0 2.96875q0 0.640625 -0.125 0.984375q-0.125 0.328125 -0.453125 0.703125z" fill-rule="nonzero"/><path fill="#980000" d="m214.15654 231.74333l-5.984375 12.890625q-0.234375 0.484375 -0.421875 0.625q-0.234375 0.203125 -0.5625 0.203125q-0.390625 0 -0.671875 -0.28125q-0.265625 -0.265625 -0.265625 -0.625q0 -0.234375 0.21875 -0.71875l6.0 -12.890625q0.21875 -0.46875 0.390625 -0.625q0.25 -0.1875 0.578125 -0.1875q0.390625 0 0.65625 0.265625q0.28125 0.265625 0.28125 0.625q0 0.234375 -0.21875 0.71875zm11.195572 0l-5.984375 12.890625q-0.234375 0.484375 -0.421875 0.625q-0.234375 0.203125 -0.5625 0.203125q-0.390625 0 -0.671875 -0.28125q-0.265625 -0.265625 -0.265625 -0.625q0 -0.234375 0.21875 -0.71875l6.0 -12.890625q0.21875 -0.46875 0.390625 -0.625q0.25 -0.1875 0.578125 -0.1875q0.390625 0 0.65625 0.265625q0.28125 0.265625 0.28125 0.625q0 0.234375 -0.21875 0.71875zm10.258072 3.625q0.328125 -0.3125 0.6875 -0.3125q0.390625 0 0.65625 0.296875q0.265625 0.28125 0.265625 0.9375l0 1.203125q0 0.671875 -0.265625 0.953125q-0.265625 0.28125 -0.671875 0.28125q-0.390625 0 -0.65625 -0.21875q-0.1875 -0.15625 -0.296875 -0.65625q-0.109375 -0.515625 -0.53125 -0.765625q-0.734375 -0.4375 -1.875 -0.4375q-1.328125 0 -2.125 0.78125q-0.796875 0.78125 -0.796875 1.953125q0 1.09375 0.765625 1.734375q0.765625 0.625 2.546875 0.625q1.15625 0 1.890625 -0.234375q0.4375 -0.140625 0.828125 -0.484375q0.40625 -0.359375 0.71875 -0.359375q0.375 0 0.65625 0.28125q0.28125 0.28125 0.28125 0.671875q0 0.609375 -0.84375 1.171875q-1.265625 0.828125 -3.6875 0.828125q-2.171875 0 -3.390625 -0.90625q-1.640625 -1.203125 -1.640625 -3.3125q0 -2.0 1.328125 -3.296875q1.34375 -1.3125 3.484375 -1.3125q0.765625 0 1.421875 0.15625q0.671875 0.140625 1.25 0.421875zm9.961197 7.9375l0 -0.4375q-0.703125 0.375 -1.5625 0.5625q-0.84375 0.1875 -1.53125 0.1875q-1.5 0 -2.4375 -0.796875q-0.9375 -0.796875 -0.9375 -1.765625q0 -1.171875 1.1875 -2.171875q1.203125 -1.015625 3.3125 -1.015625q0.859375 0 1.96875 0.1875l0 -0.453125q0 -0.421875 -0.359375 -0.6875q-0.359375 -0.265625 -1.375 -0.265625q-0.828125 0 -2.15625 0.328125q-0.484375 0.125 -0.765625 0.125q-0.359375 0 -0.625 -0.265625q-0.265625 -0.265625 -0.265625 -0.6875q0 -0.234375 0.09375 -0.40625q0.09375 -0.1875 0.25 -0.28125q0.171875 -0.109375 0.6875 -0.25q0.703125 -0.203125 1.421875 -0.3125q0.71875 -0.109375 1.296875 -0.109375q1.734375 0 2.6875 0.75q0.96875 0.75 0.96875 2.046875l0 3.84375l0.328125 0q0.671875 0 0.953125 0.265625q0.296875 0.265625 0.296875 0.6875q0 0.40625 -0.296875 0.671875q-0.28125 0.25 -0.953125 0.25l-2.1875 0zm0 -3.34375q-1.125 -0.21875 -2.078125 -0.21875q-1.125 0 -1.953125 0.5625q-0.515625 0.34375 -0.515625 0.71875q0 0.265625 0.25 0.421875q0.453125 0.296875 1.25 0.296875q0.671875 0 1.515625 -0.265625q0.859375 -0.265625 1.53125 -0.71875l0 -0.796875zm10.445557 -8.46875l0 9.9375l2.234375 0q0.6875 0 0.96875 0.265625q0.28125 0.265625 0.28125 0.6875q0 0.40625 -0.28125 0.671875q-0.28125 0.25 -0.96875 0.25l-6.3437347 0q-0.671875 0 -0.96875 -0.25q-0.28125 -0.265625 -0.28125 -0.6875q0 -0.40625 0.28125 -0.671875q0.296875 -0.265625 0.96875 -0.265625l2.25 0l0 -8.078125l-1.515625 0q-0.65625 0 -0.953125 -0.25q-0.296875 -0.265625 -0.296875 -0.6875q0 -0.40625 0.28125 -0.65625q0.296875 -0.265625 0.96875 -0.265625l3.3749847 0zm11.195587 0l0 9.9375l2.234375 0q0.6875 0 0.96875 0.265625q0.28125 0.265625 0.28125 0.6875q0 0.40625 -0.28125 0.671875q-0.28125 0.25 -0.96875 0.25l-6.34375 0q-0.671875 0 -0.96875 -0.25q-0.28125 -0.265625 -0.28125 -0.6875q0 -0.40625 0.28125 -0.671875q0.296875 -0.265625 0.96875 -0.265625l2.25 0l0 -8.078125l-1.515625 0q-0.65625 0 -0.953125 -0.25q-0.296875 -0.265625 -0.296875 -0.6875q0 -0.40625 0.28125 -0.65625q0.296875 -0.265625 0.96875 -0.265625l3.375 0zm21.438019 5.40625l0 4.53125l2.671875 0q0.671875 0 0.953125 0.265625q0.28125 0.265625 0.28125 0.6875q0 0.40625 -0.28125 0.671875q-0.28125 0.25 -0.953125 0.25l-5.640625 0q-0.671875 0 -0.96875 -0.25q-0.28125 -0.265625 -0.28125 -0.6875q0 -0.40625 0.28125 -0.671875q0.296875 -0.265625 0.96875 -0.265625l1.109375 0l0 -4.53125l-0.890625 0q-0.671875 0 -0.96875 -0.25q-0.28125 -0.265625 -0.28125 -0.6875q0 -0.40625 0.28125 -0.65625q0.296875 -0.265625 0.96875 -0.265625l0.890625 0l0 -0.71875q0 -1.21875 0.90625 -2.015625q0.921875 -0.8125 2.65625 -0.8125q0.78125 0 1.796875 0.140625q1.015625 0.140625 1.296875 0.40625q0.296875 0.25 0.296875 0.640625q0 0.4375 -0.265625 0.703125q-0.25 0.265625 -0.625 0.265625q-0.171875 0 -0.515625 -0.0625q-1.15625 -0.234375 -2.046875 -0.234375q-0.9375 0 -1.296875 0.28125q-0.34375 0.28125 -0.34375 0.6875l0 0.71875l2.890625 0q0.671875 0 0.953125 0.265625q0.28125 0.25 0.28125 0.671875q0 0.40625 -0.28125 0.671875q-0.28125 0.25 -0.953125 0.25l-2.890625 0zm15.179932 -1.859375l0 6.390625q0.59375 0 0.875 0.265625q0.28125 0.265625 0.28125 0.6875q0 0.40625 -0.296875 0.671875q-0.28125 0.25 -0.953125 0.25l-1.765625 0l0 -0.421875q-0.8125 0.359375 -1.546875 0.53125q-0.71875 0.1875 -1.375 0.1875q-0.921875 0 -1.59375 -0.375q-0.671875 -0.390625 -1.0625 -1.078125q-0.28125 -0.5 -0.28125 -1.234375l0 -4.015625l-0.328125 0q-0.671875 0 -0.96875 -0.25q-0.28125 -0.265625 -0.28125 -0.6875q0 -0.40625 0.28125 -0.65625q0.296875 -0.265625 0.96875 -0.265625l2.1875 0l0 5.546875q0 0.59375 0.28125 0.875q0.296875 0.28125 0.890625 0.28125q0.5625 0 1.203125 -0.21875q0.65625 -0.234375 1.625 -0.8125l0 -3.8125l-0.6875 0q-0.671875 0 -0.953125 -0.25q-0.28125 -0.265625 -0.28125 -0.6875q0 -0.40625 0.28125 -0.65625q0.28125 -0.265625 0.953125 -0.265625l2.546875 0zm5.336212 0l0 0.625q0.515625 -0.4375 1.125 -0.65625q0.625 -0.21875 1.34375 -0.21875q1.65625 0 2.625 1.03125q0.765625 0.8125 0.765625 2.140625l0 3.46875q0.578125 0 0.859375 0.265625q0.296875 0.265625 0.296875 0.6875q0 0.40625 -0.296875 0.671875q-0.28125 0.25 -0.953125 0.25l-1.6875 0q-0.671875 0 -0.96875 -0.25q-0.28125 -0.265625 -0.28125 -0.6875q0 -0.40625 0.28125 -0.671875q0.28125 -0.265625 0.875 -0.265625l0 -3.515625q0 -0.609375 -0.328125 -0.890625q-0.421875 -0.375 -1.28125 -0.375q-0.65625 0 -1.140625 0.25q-0.484375 0.25 -1.234375 1.0625l0 3.46875q0.71875 0 0.9375 0.140625q0.4375 0.28125 0.4375 0.8125q0 0.40625 -0.28125 0.671875q-0.28125 0.25 -0.96875 0.25l-2.109375 0q-0.6875 0 -0.96875 -0.25q-0.28125 -0.265625 -0.28125 -0.6875q0 -0.515625 0.4375 -0.796875q0.21875 -0.140625 0.9375 -0.140625l0 -4.53125q-0.59375 0 -0.875 -0.265625q-0.28125 -0.265625 -0.28125 -0.671875q0 -0.40625 0.28125 -0.65625q0.28125 -0.265625 0.96875 -0.265625l1.765625 0zm16.008057 0.328125q0.328125 -0.3125 0.6875 -0.3125q0.390625 0 0.65625 0.296875q0.265625 0.28125 0.265625 0.9375l0 1.203125q0 0.671875 -0.265625 0.953125q-0.265625 0.28125 -0.671875 0.28125q-0.390625 0 -0.65625 -0.21875q-0.1875 -0.15625 -0.296875 -0.65625q-0.109375 -0.515625 -0.53125 -0.765625q-0.734375 -0.4375 -1.875 -0.4375q-1.328125 0 -2.125 0.78125q-0.796875 0.78125 -0.796875 1.953125q0 1.09375 0.765625 1.734375q0.765625 0.625 2.546875 0.625q1.15625 0 1.890625 -0.234375q0.4375 -0.140625 0.828125 -0.484375q0.40625 -0.359375 0.71875 -0.359375q0.375 0 0.65625 0.28125q0.28125 0.28125 0.28125 0.671875q0 0.609375 -0.84375 1.171875q-1.265625 0.828125 -3.6875 0.828125q-2.171875 0 -3.390625 -0.90625q-1.640625 -1.203125 -1.640625 -3.3125q0 -2.0 1.328125 -3.296875q1.34375 -1.3125 3.484375 -1.3125q0.765625 0 1.421875 0.15625q0.671875 0.140625 1.25 0.421875zm7.820587 1.53125l0 3.75q0 0.59375 0.25 0.78125q0.375 0.3125 1.359375 0.3125q1.4375 0 2.640625 -0.609375q0.46875 -0.234375 0.734375 -0.234375q0.359375 0 0.625 0.265625q0.265625 0.265625 0.265625 0.671875q0 0.359375 -0.28125 0.625q-0.453125 0.421875 -1.765625 0.78125q-1.3125 0.359375 -2.21875 0.359375q-1.734375 0 -2.609375 -0.75q-0.875 -0.75 -0.875 -1.84375l0 -4.109375l-0.671875 0q-0.671875 0 -0.96875 -0.25q-0.28125 -0.265625 -0.28125 -0.6875q0 -0.40625 0.28125 -0.65625q0.296875 -0.265625 0.96875 -0.265625l0.671875 0l0 -1.6875q0 -0.671875 0.265625 -0.953125q0.265625 -0.296875 0.671875 -0.296875q0.421875 0 0.671875 0.296875q0.265625 0.28125 0.265625 0.953125l0 1.6875l3.453125 0q0.671875 0 0.953125 0.265625q0.296875 0.25 0.296875 0.671875q0 0.40625 -0.296875 0.671875q-0.28125 0.25 -0.953125 0.25l-3.453125 0zm12.320557 -5.40625l0 1.96875l-2.21875 0l0 -1.96875l2.21875 0zm0.25 3.546875l0 6.390625l2.25 0q0.671875 0 0.953125 0.265625q0.296875 0.265625 0.296875 0.6875q0 0.40625 -0.296875 0.671875q-0.28125 0.25 -0.953125 0.25l-6.359375 0q-0.671875 0 -0.953125 -0.25q-0.28125 -0.265625 -0.28125 -0.6875q0 -0.40625 0.28125 -0.671875q0.28125 -0.265625 0.953125 -0.265625l2.25 0l0 -4.53125l-1.5 0q-0.671875 0 -0.96875 -0.25q-0.28125 -0.265625 -0.28125 -0.6875q0 -0.40625 0.28125 -0.65625q0.296875 -0.265625 0.96875 -0.265625l3.359375 0zm15.133087 4.28125q0 1.078125 -0.609375 2.09375q-0.59375 1.0 -1.78125 1.59375q-1.171875 0.59375 -2.453125 0.59375q-1.265625 0 -2.4375 -0.578125q-1.171875 -0.59375 -1.78125 -1.59375q-0.609375 -1.015625 -0.609375 -2.125q0 -1.125 0.609375 -2.203125q0.625 -1.078125 1.78125 -1.6875q1.171875 -0.625 2.4375 -0.625q1.28125 0 2.453125 0.640625q1.1875 0.625 1.78125 1.703125q0.609375 1.0625 0.609375 2.1875zm-1.875 0.015625q0 -0.90625 -0.640625 -1.65625q-0.890625 -1.03125 -2.328125 -1.03125q-1.265625 0 -2.109375 0.8125q-0.84375 0.8125 -0.84375 1.875q0 0.875 0.84375 1.640625q0.859375 0.765625 2.109375 0.765625q1.265625 0 2.109375 -0.765625q0.859375 -0.765625 0.859375 -1.640625zm6.3205566 -4.296875l0 0.625q0.515625 -0.4375 1.125 -0.65625q0.625 -0.21875 1.34375 -0.21875q1.65625 0 2.625 1.03125q0.765625 0.8125 0.765625 2.140625l0 3.46875q0.578125 0 0.859375 0.265625q0.296875 0.265625 0.296875 0.6875q0 0.40625 -0.296875 0.671875q-0.28125 0.25 -0.953125 0.25l-1.6875 0q-0.671875 0 -0.96875 -0.25q-0.28125 -0.265625 -0.28125 -0.6875q0 -0.40625 0.28125 -0.671875q0.28125 -0.265625 0.875 -0.265625l0 -3.515625q0 -0.609375 -0.328125 -0.890625q-0.421875 -0.375 -1.28125 -0.375q-0.65625 0 -1.140625 0.25q-0.484375 0.25 -1.234375 1.0625l0 3.46875q0.71875 0 0.9375 0.140625q0.4375 0.28125 0.4375 0.8125q0 0.40625 -0.28125 0.671875q-0.28125 0.25 -0.96875 0.25l-2.109375 0q-0.6875 0 -0.96875 -0.25q-0.28125 -0.265625 -0.28125 -0.6875q0 -0.515625 0.4375 -0.796875q0.21875 -0.140625 0.9375 -0.140625l0 -4.53125q-0.59375 0 -0.875 -0.265625q-0.28125 -0.265625 -0.28125 -0.671875q0 -0.40625 0.28125 -0.65625q0.28125 -0.265625 0.96875 -0.265625l1.765625 0zm29.141144 4.28125q0 1.078125 -0.609375 2.09375q-0.59375 1.0 -1.78125 1.59375q-1.171875 0.59375 -2.453125 0.59375q-1.265625 0 -2.4375 -0.578125q-1.171875 -0.59375 -1.78125 -1.59375q-0.609375 -1.015625 -0.609375 -2.125q0 -1.125 0.609375 -2.203125q0.625 -1.078125 1.78125 -1.6875q1.171875 -0.625 2.4375 -0.625q1.28125 0 2.453125 0.640625q1.1875 0.625 1.78125 1.703125q0.609375 1.0625 0.609375 2.1875zm-1.875 0.015625q0 -0.90625 -0.640625 -1.65625q-0.890625 -1.03125 -2.328125 -1.03125q-1.265625 0 -2.109375 0.8125q-0.84375 0.8125 -0.84375 1.875q0 0.875 0.84375 1.640625q0.859375 0.765625 2.109375 0.765625q1.265625 0 2.109375 -0.765625q0.859375 -0.765625 0.859375 -1.640625zm6.320587 -4.296875l0 0.625q0.515625 -0.4375 1.125 -0.65625q0.625 -0.21875 1.34375 -0.21875q1.65625 0 2.6249695 1.03125q0.765625 0.8125 0.765625 2.140625l0 3.46875q0.578125 0 0.859375 0.265625q0.296875 0.265625 0.296875 0.6875q0 0.40625 -0.296875 0.671875q-0.28125 0.25 -0.953125 0.25l-1.6874695 0q-0.671875 0 -0.96875 -0.25q-0.28125 -0.265625 -0.28125 -0.6875q0 -0.40625 0.28125 -0.671875q0.28125 -0.265625 0.875 -0.265625l0 -3.515625q0 -0.609375 -0.328125 -0.890625q-0.421875 -0.375 -1.28125 -0.375q-0.65625 0 -1.140625 0.25q-0.484375 0.25 -1.234375 1.0625l0 3.46875q0.71875 0 0.9375 0.140625q0.4375 0.28125 0.4375 0.8125q0 0.40625 -0.28125 0.671875q-0.28125 0.25 -0.96875 0.25l-2.109375 0q-0.6875 0 -0.96875 -0.25q-0.28125 -0.265625 -0.28125 -0.6875q0 -0.515625 0.4375 -0.796875q0.21875 -0.140625 0.9375 -0.140625l0 -4.53125q-0.59375 0 -0.875 -0.265625q-0.28125 -0.265625 -0.28125 -0.671875q0 -0.40625 0.28125 -0.65625q0.28125 -0.265625 0.96875 -0.265625l1.765625 0zm26.328644 3.6875l-3.984375 0l0 2.703125l0.28125 0q0.6875 0 0.96875 0.265625q0.28125 0.265625 0.28125 0.6875q0 0.40625 -0.28125 0.671875q-0.28125 0.25 -0.96875 0.25l-2.28125 0q-0.671875 0 -0.96875 -0.25q-0.28125 -0.265625 -0.28125 -0.6875q0 -0.515625 0.453125 -0.796875q0.21875 -0.140625 0.921875 -0.140625l0 -7.296875q-0.484375 -0.046875 -0.734375 -0.296875q-0.25 -0.265625 -0.25 -0.640625q0 -0.421875 0.28125 -0.671875q0.28125 -0.265625 0.96875 -0.265625l1.890625 0q0.6875 0 0.96875 0.265625q0.28125 0.25 0.28125 0.671875q0 0.421875 -0.28125 0.6875q-0.28125 0.25 -0.96875 0.25l-0.28125 0l0 2.734375l3.984375 0l0 -2.734375l-0.296875 0q-0.671875 0 -0.953125 -0.25q-0.28125 -0.265625 -0.28125 -0.6875q0 -0.421875 0.28125 -0.671875q0.28125 -0.265625 0.953125 -0.265625l1.90625 0q0.671875 0 0.953125 0.265625q0.296875 0.25 0.296875 0.671875q0 0.375 -0.25 0.640625q-0.25 0.25 -0.734375 0.296875l0 7.296875q0.71875 0 0.921875 0.140625q0.453125 0.28125 0.453125 0.8125q0 0.40625 -0.296875 0.671875q-0.28125 0.25 -0.953125 0.25l-2.296875 0q-0.671875 0 -0.953125 -0.25q-0.28125 -0.265625 -0.28125 -0.6875q0 -0.40625 0.28125 -0.671875q0.296875 -0.265625 0.953125 -0.265625l0.296875 0l0 -2.703125zm10.054932 -4.59375l0 7.296875l1.265625 0q0.671875 0 0.953125 0.265625q0.296875 0.265625 0.296875 0.6875q0 0.40625 -0.296875 0.671875q-0.28125 0.25 -0.953125 0.25l-4.375 0q-0.671875 0 -0.96875 -0.25q-0.28125 -0.265625 -0.28125 -0.6875q0 -0.40625 0.28125 -0.671875q0.296875 -0.265625 0.96875 -0.265625l1.25 0l0 -7.296875l-2.03125 0l0 1.765625q0 0.671875 -0.265625 0.96875q-0.25 0.28125 -0.671875 0.28125q-0.40625 0 -0.671875 -0.28125q-0.25 -0.296875 -0.25 -0.96875l0 -3.640625l9.671875 0l0 3.640625q0 0.671875 -0.265625 0.96875q-0.25 0.28125 -0.671875 0.28125q-0.40625 0 -0.671875 -0.28125q-0.265625 -0.296875 -0.265625 -0.96875l0 -1.765625l-2.046875 0zm7.3674316 1.734375l0 5.5625l0.6875 0q0.671875 0 0.953125 0.265625q0.28125 0.265625 0.28125 0.6875q0 0.40625 -0.28125 0.671875q-0.28125 0.25 -0.953125 0.25l-2.453125 0q-0.671875 0 -0.953125 -0.25q-0.296875 -0.265625 -0.296875 -0.6875q0 -0.40625 0.28125 -0.671875q0.28125 -0.265625 0.875 -0.265625l0 -7.296875q-0.5 -0.046875 -0.75 -0.296875q-0.25 -0.265625 -0.25 -0.640625q0 -0.421875 0.28125 -0.671875q0.296875 -0.265625 0.96875 -0.265625l2.046875 0l2.546875 5.625l2.5 -5.625l2.0625 0q0.671875 0 0.953125 0.265625q0.296875 0.25 0.296875 0.671875q0 0.375 -0.265625 0.640625q-0.25 0.25 -0.734375 0.296875l0 7.296875q0.59375 0 0.875 0.265625q0.296875 0.265625 0.296875 0.6875q0 0.40625 -0.296875 0.671875q-0.28125 0.25 -0.953125 0.25l-2.46875 0q-0.65625 0 -0.953125 -0.25q-0.28125 -0.265625 -0.28125 -0.6875q0 -0.40625 0.28125 -0.671875q0.296875 -0.265625 0.953125 -0.265625l0.6875 0l0 -5.5625l-2.140625 4.8125l-1.625 0l-2.171875 -4.8125zm13.336212 -1.734375l0 7.296875l4.03125 0l0 -1.765625q0 -0.671875 0.25 -0.953125q0.265625 -0.28125 0.6875 -0.28125q0.40625 0 0.671875 0.28125q0.265625 0.28125 0.265625 0.953125l0 3.640625l-8.84375 0q-0.6875 0 -0.96875 -0.25q-0.28125 -0.265625 -0.28125 -0.6875q0 -0.40625 0.28125 -0.671875q0.28125 -0.265625 0.96875 -0.265625l1.078125 0l0 -7.296875l-1.078125 0q-0.6875 0 -0.96875 -0.25q-0.28125 -0.265625 -0.28125 -0.6875q0 -0.421875 0.28125 -0.671875q0.28125 -0.265625 0.96875 -0.265625l4.03125 0q0.6875 0 0.96875 0.265625q0.28125 0.25 0.28125 0.671875q0 0.421875 -0.28125 0.6875q-0.28125 0.25 -0.96875 0.25l-1.09375 0zm28.031769 5.1875q0 1.078125 -0.609375 2.09375q-0.59375 1.0 -1.78125 1.59375q-1.171875 0.59375 -2.453125 0.59375q-1.265625 0 -2.4375 -0.578125q-1.171875 -0.59375 -1.78125 -1.59375q-0.609375 -1.015625 -0.609375 -2.125q0 -1.125 0.609375 -2.203125q0.625 -1.078125 1.78125 -1.6875q1.171875 -0.625 2.4375 -0.625q1.28125 0 2.453125 0.640625q1.1875 0.625 1.78125 1.703125q0.609375 1.0625 0.609375 2.1875zm-1.875 0.015625q0 -0.90625 -0.640625 -1.65625q-0.890625 -1.03125 -2.328125 -1.03125q-1.265625 0 -2.109375 0.8125q-0.84375 0.8125 -0.84375 1.875q0 0.875 0.84375 1.640625q0.859375 0.765625 2.109375 0.765625q1.265625 0 2.109375 -0.765625q0.859375 -0.765625 0.859375 -1.640625zm5.8674316 -7.84375l0 4.1875q0.671875 -0.453125 1.375 -0.671875q0.71875 -0.21875 1.4375 -0.21875q1.9375 0 3.28125 1.34375q1.34375 1.328125 1.34375 3.234375q0 1.8125 -1.28125 3.03125q-1.28125 1.203125 -3.390625 1.203125q-0.734375 0 -1.4375 -0.1875q-0.6875 -0.1875 -1.328125 -0.5625l0 0.453125l-2.1875 0q-0.6875 0 -0.96875 -0.25q-0.28125 -0.265625 -0.28125 -0.6875q0 -0.40625 0.28125 -0.671875q0.296875 -0.265625 0.96875 -0.265625l0.3125 0l0 -8.078125l-0.3125 0q-0.6875 0 -0.96875 -0.25q-0.28125 -0.265625 -0.28125 -0.6875q0 -0.40625 0.28125 -0.65625q0.28125 -0.265625 0.96875 -0.265625l2.1875 0zm5.578125 7.921875q0 -1.15625 -0.8125 -1.953125q-0.8125 -0.8125 -1.984375 -0.8125q-1.171875 0 -1.984375 0.8125q-0.796875 0.796875 -0.796875 1.921875q0 1.03125 0.71875 1.703125q0.734375 0.65625 2.0625 0.65625q1.328125 0 2.0625 -0.65625q0.734375 -0.671875 0.734375 -1.671875zm9.851807 -7.921875l0 1.96875l-2.234375 0l0 -1.96875l2.234375 0zm-0.765625 5.40625l-3.8125 0q-0.671875 0 -0.96875 -0.25q-0.28125 -0.265625 -0.28125 -0.6875q0 -0.40625 0.28125 -0.65625q0.296875 -0.265625 0.96875 -0.265625l5.671875 0l0 8.65625q0 0.984375 -0.421875 1.71875q-0.40625 0.734375 -1.265625 1.265625q-0.84375 0.53125 -1.921875 0.53125l-2.125 0q-0.671875 0 -0.953125 -0.265625q-0.28125 -0.265625 -0.28125 -0.671875q0 -0.421875 0.28125 -0.6875q0.28125 -0.25 0.953125 -0.25l2.0625 0q0.859375 0 1.328125 -0.46875q0.484375 -0.453125 0.484375 -1.171875l0 -6.796875zm14.758087 3.21875l-7.6562805 0q0.296875 0.734375 1.03125 1.1875q0.75 0.4375 2.0156555 0.4375q1.03125 0 2.75 -0.453125q0.71875 -0.1875 0.984375 -0.1875q0.375 0 0.625 0.265625q0.265625 0.265625 0.265625 0.671875q0 0.359375 -0.28125 0.625q-0.359375 0.328125 -1.78125 0.640625q-1.40625 0.296875 -2.703125 0.296875q-2.2500305 0 -3.5937805 -1.265625q-1.34375 -1.265625 -1.34375 -3.109375q0 -1.96875 1.453125 -3.203125q1.453125 -1.234375 3.3594055 -1.234375q1.140625 0 2.078125 0.40625q0.953125 0.390625 1.421875 0.859375q0.65625 0.671875 1.09375 1.671875q0.28125 0.6875 0.28125 1.59375l0 0.796875zm-2.0625 -1.875q-0.4375 -0.796875 -1.125 -1.1875q-0.6875 -0.40625 -1.640625 -0.40625q-0.9531555 0 -1.6562805 0.40625q-0.6875 0.390625 -1.125 1.1875l5.5469055 0zm11.492432 -2.875q0.328125 -0.3125 0.6875 -0.3125q0.390625 0 0.65625 0.296875q0.265625 0.28125 0.265625 0.9375l0 1.203125q0 0.671875 -0.265625 0.953125q-0.265625 0.28125 -0.671875 0.28125q-0.390625 0 -0.65625 -0.21875q-0.1875 -0.15625 -0.296875 -0.65625q-0.109375 -0.515625 -0.53125 -0.765625q-0.734375 -0.4375 -1.875 -0.4375q-1.328125 0 -2.125 0.78125q-0.796875 0.78125 -0.796875 1.953125q0 1.09375 0.765625 1.734375q0.765625 0.625 2.546875 0.625q1.15625 0 1.890625 -0.234375q0.4375 -0.140625 0.828125 -0.484375q0.40625 -0.359375 0.71875 -0.359375q0.375 0 0.65625 0.28125q0.28125 0.28125 0.28125 0.671875q0 0.609375 -0.84375 1.171875q-1.265625 0.828125 -3.6875 0.828125q-2.171875 0 -3.390625 -0.90625q-1.640625 -1.203125 -1.640625 -3.3125q0 -2.0 1.328125 -3.296875q1.34375 -1.3125 3.484375 -1.3125q0.765625 0 1.421875 0.15625q0.671875 0.140625 1.25 0.421875zm7.8205566 1.53125l0 3.75q0 0.59375 0.25 0.78125q0.375 0.3125 1.359375 0.3125q1.4375 0 2.640625 -0.609375q0.46875 -0.234375 0.734375 -0.234375q0.359375 0 0.625 0.265625q0.265625 0.265625 0.265625 0.671875q0 0.359375 -0.28125 0.625q-0.453125 0.421875 -1.765625 0.78125q-1.3125 0.359375 -2.21875 0.359375q-1.734375 0 -2.609375 -0.75q-0.875 -0.75 -0.875 -1.84375l0 -4.109375l-0.671875 0q-0.671875 0 -0.96875 -0.25q-0.28125 -0.265625 -0.28125 -0.6875q0 -0.40625 0.28125 -0.65625q0.296875 -0.265625 0.96875 -0.265625l0.671875 0l0 -1.6875q0 -0.671875 0.265625 -0.953125q0.265625 -0.296875 0.671875 -0.296875q0.421875 0 0.671875 0.296875q0.265625 0.28125 0.265625 0.953125l0 1.6875l3.453125 0q0.671875 0 0.953125 0.265625q0.296875 0.25 0.296875 0.671875q0 0.40625 -0.296875 0.671875q-0.28125 0.25 -0.953125 0.25l-3.453125 0z" fill-rule="nonzero"/><path fill="#9900ff" d="m161.87529 260.77457q-0.3125 -0.375 -0.4375 -0.71875q-0.125 -0.359375 -0.125 -0.96875l0 -2.96875q0 -0.37498474 -0.140625 -0.53123474q-0.140625 -0.15625 -0.53125 -0.1875q-0.375 -0.046875 -0.625 -0.296875q-0.25 -0.265625 -0.25 -0.640625q0 -0.40625 0.28125 -0.671875q0.28125 -0.28125 0.703125 -0.28125q0.625 0 1.1875 0.328125q0.5625 0.3125 0.984375 1.046875q0.265625 0.46875 0.265625 1.09375l0 3.1093597q0 0.390625 0.125 0.546875q0.125 0.15625 0.53125 0.203125q0.421875 0.046875 0.640625 0.296875q0.234375 0.234375 0.234375 0.640625q0 0.40625 -0.234375 0.65625q-0.21875 0.234375 -0.640625 0.296875q-0.421875 0.046875 -0.515625 0.15625q-0.140625 0.1875 -0.140625 0.578125l0 3.28125q0 1.015625 -0.734375 1.75q-0.734375 0.734375 -1.6875 0.734375q-0.4375 0 -0.71875 -0.28125q-0.28125 -0.265625 -0.28125 -0.671875q0 -0.375 0.25 -0.640625q0.25 -0.265625 0.640625 -0.296875q0.390625 -0.03125 0.5 -0.171875q0.15625 -0.1875 0.15625 -0.5625l0 -2.96875q0 -0.78125 0.109375 -1.125q0.125 -0.34375 0.453125 -0.734375z" fill-rule="nonzero"/></g></svg>